<svg width="172" height="42" viewBox="0 0 172 42" fill="none" xmlns="http://www.w3.org/2000/svg">
<path d="M8.55604 35.0446H5.03986C6.21192 36.7441 7.55978 38.971 7.55978 41.0221H0V0H8.32162V5.74309C8.32162 12.7168 6.56353 15.4712 5.09846 17.7567H8.61464C9.9039 14.768 12.4238 10.8416 18.4599 10.8416C25.6095 10.8416 30.5322 17.1121 30.5322 26.3713C30.5322 35.6306 25.6095 41.9597 18.4599 41.9597C12.248 41.9597 10.0211 37.9747 8.55604 35.0446ZM21.8003 26.3713C21.8003 19.5148 18.8116 17.1121 14.9438 17.1121C10.7829 17.1121 7.97001 20.1594 7.97001 26.3713C7.97001 32.5833 10.8416 35.6306 14.9438 35.6306C18.8116 35.6306 21.8003 33.2279 21.8003 26.3713Z" fill="black"/>
<path d="M34.8105 26.3127C34.8105 17.1121 41.1397 10.8416 49.6371 10.8416C59.4824 10.8416 64.6395 18.5771 63.819 28.3638H43.1322C43.3666 33.5209 46.1209 35.6306 49.6957 35.6306C53.4463 35.6306 55.263 33.2865 56.4937 30.5322L63.9362 33.4037C62.2953 37.1543 58.6034 41.9597 49.6957 41.9597C40.6708 41.9597 34.8105 35.9236 34.8105 26.3127ZM55.6146 22.5035C55.263 18.8702 53.1533 16.8191 49.6371 16.8191C46.2967 16.8191 44.0112 18.8116 43.4252 22.5035H55.6146Z" fill="black"/>
<path d="M70.1475 0H78.4691V41.0221H70.1475V0Z" fill="black"/>
<path d="M84.6228 26.3127C84.6228 17.1121 90.9519 10.8416 99.4494 10.8416C109.295 10.8416 114.452 18.5771 113.631 28.3638H92.9444C93.1788 33.5209 95.9332 35.6306 99.508 35.6306C103.259 35.6306 105.075 33.2865 106.306 30.5322L113.748 33.4037C112.108 37.1543 108.416 41.9597 99.508 41.9597C90.4831 41.9597 84.6228 35.9236 84.6228 26.3127ZM105.427 22.5035C105.075 18.8702 102.966 16.8191 99.4494 16.8191C96.109 16.8191 93.8235 18.8116 93.2374 22.5035H105.427Z" fill="black"/>
<path d="M118.026 26.3127C118.026 17.1121 124.355 10.8416 132.852 10.8416C142.698 10.8416 147.855 18.5771 147.034 28.3638H126.348C126.582 33.5209 129.336 35.6306 132.911 35.6306C136.662 35.6306 138.478 33.2865 139.709 30.5322L147.152 33.4037C145.511 37.1543 141.819 41.9597 132.911 41.9597C123.886 41.9597 118.026 35.9236 118.026 26.3127ZM138.83 22.5035C138.478 18.8702 136.369 16.8191 132.852 16.8191C129.512 16.8191 127.227 18.8116 126.641 22.5035H138.83Z" fill="black"/>
<path d="M155.65 18.0497H149.965V11.7206H155.65V7.67699C155.65 3.10596 158.228 0 162.975 0H172V6.62214H166.55C164.733 6.62214 163.971 7.44258 163.971 9.20067V11.7206H170.769V18.0497H163.971V41.0221H155.65V18.0497Z" fill="black"/>
</svg>
