<svg width="190" height="20" viewBox="0 0 190 20" fill="none" xmlns="http://www.w3.org/2000/svg">
<path d="M25.9046 4.74768L28.1446 11.8693L30.4421 4.74768H32.7395L29.1785 15.3115H27.283L23.6646 4.74768H25.9046Z" fill="#010202"/>
<path d="M37.1623 15.3708H35.0371V4.74768H37.1048V15.3708H37.1623Z" fill="#010202"/>
<path d="M46.065 15.3708L44.227 11.2165H42.5614V15.3708H40.4937V4.74768H44.1696C46.5245 4.74768 48.0178 5.81593 48.0178 8.01178C48.0178 9.43611 47.386 10.3857 46.2373 10.8604L48.3625 15.3708H46.065ZM43.9398 9.37676C45.146 9.37676 45.8927 9.08003 45.8927 8.01178C45.8927 6.94353 45.2034 6.58744 43.9398 6.58744H42.5614V9.37676H43.9398Z" fill="#010202"/>
<path d="M57.4948 4.74768V6.58744H54.6804V15.3708H52.6127V6.58744H49.7983V4.74768H57.4948Z" fill="#010202"/>
<path d="M67.6611 4.74768V11.0385C67.6611 14.1839 65.9954 15.4895 63.698 15.4895C61.4005 15.4895 59.7349 14.1839 59.7349 11.0978V4.74768H61.8026V11.0385C61.8026 12.8782 62.3769 13.6498 63.6405 13.6498C64.9041 13.6498 65.4785 12.8782 65.4785 11.0385V4.74768H67.6611Z" fill="#010202"/>
<path d="M77.2529 4.74768V6.58744H72.9452V8.96133H76.7934V10.8011H72.9452V13.5904H77.2529V15.4302H70.8774V4.74768H77.2529Z" fill="#010202"/>
<path d="M81.9622 13.5311H86.27V15.3708H79.8945V4.74768H81.9622V13.5311Z" fill="#010202"/>
<path d="M94.9433 4.74768V6.58744H90.6356V8.96133H94.4838V10.8011H90.6356V13.5904H94.9433V15.4302H88.5679V4.74768H94.9433Z" fill="#010202"/>
<path d="M101.376 15.3708L104.938 4.74768H106.948L110.509 15.3115H108.269L107.637 13.2937H104.191L103.559 15.3115H101.376V15.3708ZM104.765 11.5133H107.063L105.914 7.77439L104.765 11.5133Z" fill="#010202"/>
<path d="M117.688 8.01184C117.516 7.00294 116.941 6.40946 115.908 6.40946C114.701 6.40946 114.07 7.24033 114.07 9.25813V10.7418C114.07 12.7003 114.701 13.5905 115.908 13.5905C116.941 13.5905 117.458 13.0563 117.688 11.9881H119.641C119.296 14.362 118.033 15.4302 115.908 15.4302C113.61 15.4302 112.002 14.0059 112.002 10.7418V9.25813C112.002 5.99403 113.61 4.5697 115.908 4.5697C117.918 4.5697 119.296 5.6973 119.641 8.01184H117.688Z" fill="#010202"/>
<path d="M128.946 4.74768V6.58744H126.131V15.3708H124.063V6.58744H121.249V4.74768H128.946Z" fill="#010202"/>
<path d="M133.483 15.3708H131.416V4.74768H133.483V15.3708Z" fill="#010202"/>
<path d="M138.136 4.74768L140.376 11.8693L142.616 4.74768H144.913L141.295 15.3708H139.399L135.838 4.74768H138.136Z" fill="#010202"/>
<path d="M149.336 15.3708H147.268V4.74768H149.336V15.3708Z" fill="#010202"/>
<path d="M159.502 4.74768V6.58744H156.688V15.3708H154.62V6.58744H151.806V4.74768H159.502Z" fill="#010202"/>
<path d="M168.232 4.74768V6.58744H163.925V8.96133H167.773V10.8011H163.925V13.5904H168.232V15.4302H161.857V4.74768H168.232Z" fill="#010202"/>
<path d="M173.057 15.3708H170.989V4.74768H173.057V15.3708Z" fill="#010202"/>
<path d="M183.223 4.74768V6.58744H180.408V15.3708H178.341V6.58744H175.526V4.74768H183.223Z" fill="#010202"/>
<path d="M42.9622 0H19.5855H0.0571289V20H19.5855H42.9622H190V0H42.9622ZM12.3485 11.9881C12.3485 12.5223 11.9465 12.997 11.3721 12.997H5.62847C5.11154 12.997 4.65205 12.5816 4.65205 11.9881V8.01187C4.65205 7.47775 5.05411 7.00297 5.62847 7.00297H11.3721C11.8891 7.00297 12.3485 7.4184 12.3485 8.01187V11.9881ZM16.1394 12.9377L13.2675 10.8605V9.08012L16.1394 7.00297V12.9377ZM188.851 18.8131H20.7343V1.18694H188.851V18.8131Z" fill="#010202"/>
</svg>
