<?xml version="1.0" encoding="utf-8"?>
<!-- Generator: Adobe Illustrator 24.2.1, SVG Export Plug-In . SVG Version: 6.00 Build 0)  -->
<svg version="1.1" id="Laag_1" xmlns="http://www.w3.org/2000/svg" xmlns:xlink="http://www.w3.org/1999/xlink" x="0px" y="0px"
	 viewBox="0 0 497.19 187.912" style="enable-background:new 0 0 497.19 187.912;" xml:space="preserve">
<style type="text/css">
	.st0{fill:#E20613;}
</style>
<g>
	<g>
		<g>
			<g>
				<g>
					<path d="M219.71,175.332l-7.24,4.66v-3.04l8.54-4.48h1.77v15.09h-3.06v-12.23L219.71,175.332L219.71,175.332z"/>
					<path d="M237.4,175.032h-12.72v-2.57h16.97v1.28l-10.29,13.82h-3.97L237.4,175.032z"/>
					<path d="M253.87,181.032v1.4h-5.33v-1.4H253.87z"/>
					<path d="M259.61,185.772c0.19-5.76,12.87-5.69,12.87-8.71c0-1.68-1.49-2.33-5.33-2.33c-3,0-5.89,0.75-7.09,1.34v-2.7
						c1.6-0.73,4.57-1.23,7.68-1.23c5.2,0,7.93,1.23,7.93,4.33c0,6.08-11.51,5.41-12.87,8.5h12.55v2.59h-15.74V185.772z"/>
					<path d="M277.25,179.752c0-4.85,3.6-7.61,9.47-7.61c2.65,0,4.48,0.45,6.1,1.25v2.85c-1.79-0.99-3.71-1.51-6.34-1.51
						c-3.86,0-6.17,1.83-6.17,5.2c2.16-1.81,4.96-2.29,6.79-2.29c4.76,0,6.88,2.2,6.88,5.13c0,3.04-2.87,5.05-7.89,5.05
						C280.81,187.822,277.25,185.252,277.25,179.752z M290.9,182.602c0-1.72-1.45-2.65-4.33-2.65c-2.01,0-4.72,0.86-5.93,2.22
						c0.58,1.9,2.5,3.06,5.26,3.06C288.96,185.232,290.9,184.282,290.9,182.602z"/>
					<path d="M302.05,180.252h3.08c0,3.6,1.36,5.07,4.31,5.07c2.93,0,4.31-1.47,4.31-5.07v-5.22h-9.7v-2.57h12.76v7.78
						c0,5.61-2.95,7.65-7.37,7.65C305.01,187.902,302.05,185.862,302.05,180.252z"/>
					<path d="M320.08,179.542v-7.07h3.06v7.72c0,3.45,1.53,5.09,4.85,5.09c3.3,0,4.85-1.64,4.85-5.09v-7.72h3.06v7.07
						c0,6.43-2.98,8.37-7.91,8.37C323.06,187.902,320.08,185.962,320.08,179.542z"/>
					<path d="M338.63,172.472h3.06v12.51h10.52v2.59h-13.58V172.472z"/>
					<path d="M353.53,172.472h3.06v15.09h-3.06V172.472z"/>
					<path d="M365.46,185.772c0.19-5.76,12.87-5.69,12.87-8.71c0-1.68-1.49-2.33-5.33-2.33c-3,0-5.89,0.75-7.09,1.34v-2.7
						c1.59-0.73,4.57-1.23,7.68-1.23c5.2,0,7.93,1.23,7.93,4.33c0,6.08-11.52,5.41-12.87,8.5h12.55v2.59h-15.74V185.772z"/>
					<path d="M382.67,180.012c0-4.74,3.64-7.89,9.53-7.89c5.91,0,9.55,3.15,9.55,7.89s-3.64,7.89-9.55,7.89
						C386.31,187.902,382.67,184.762,382.67,180.012z M398.69,180.012c0-3.34-2.54-5.33-6.49-5.33c-3.92,0-6.47,1.98-6.47,5.33
						s2.54,5.3,6.47,5.3C396.14,185.322,398.69,183.352,398.69,180.012z"/>
					<path d="M402.44,185.772c0.19-5.76,12.87-5.69,12.87-8.71c0-1.68-1.49-2.33-5.33-2.33c-3,0-5.89,0.75-7.09,1.34v-2.7
						c1.6-0.73,4.57-1.23,7.68-1.23c5.2,0,7.93,1.23,7.93,4.33c0,6.08-11.51,5.41-12.87,8.5h12.55v2.59h-15.74V185.772
						L402.44,185.772z"/>
					<path d="M419.65,180.012c0-4.74,3.64-7.89,9.53-7.89c5.91,0,9.55,3.15,9.55,7.89s-3.64,7.89-9.55,7.89
						C423.3,187.902,419.65,184.762,419.65,180.012z M435.67,180.012c0-3.34-2.54-5.33-6.49-5.33c-3.92,0-6.47,1.98-6.47,5.33
						s2.54,5.3,6.47,5.3C433.13,185.322,435.67,183.352,435.67,180.012z"/>
				</g>
				<g>
					<g>
						<g>
							<path d="M74.98,2.562c17.97,0,30.02,8.06,30.54,20.11H94.95c-0.59-7.1-7.91-11.31-19.82-11.31
								c-12.5,0-20.85,7.02-20.85,18.26s8.28,18.19,20.71,18.19c11.24,0,19.82-4.59,21.08-12.28H67.23v-7.69h39.12v27.66h-8.58
								l0.74-11.98h-0.67c-4.73,9.69-13.68,13.16-23.07,13.16c-18.63,0-30.98-10.8-30.98-27.06C43.77,13.352,56.2,2.562,74.98,2.562
								z"/>
							<path d="M74.77,56.811c-9.17,0-16.972-2.581-22.561-7.464c-5.592-4.886-8.548-11.707-8.548-19.724
								c-0.009-7.331,2.507-13.729,7.275-18.504c5.594-5.6,14.132-8.685,24.043-8.685c8.82,0,16.388,1.922,21.885,5.558
								c5.488,3.63,8.526,8.705,8.784,14.675c0.001,0.035-0.012,0.069-0.036,0.094c-0.024,0.025-0.058,0.04-0.093,0.04H94.95
								c-0.067,0-0.123-0.051-0.128-0.118C94.24,15.674,86.878,11.49,75.13,11.49c-12.588,0-20.722,7.117-20.722,18.132
								c0,10.972,8.079,18.062,20.582,18.062c11.44,0,19.631-4.713,20.927-12.023H67.23c-0.071,0-0.128-0.058-0.128-0.128v-7.69
								c0-0.071,0.058-0.128,0.128-0.128h39.12c0.071,0,0.128,0.058,0.128,0.128v27.66c0,0.071-0.058,0.128-0.128,0.128h-8.58
								c-0.036,0-0.069-0.015-0.094-0.041c-0.024-0.026-0.037-0.061-0.034-0.096l0.731-11.844H97.92
								C92.572,54.525,82.384,56.811,74.77,56.811z M74.98,2.69c-9.842,0-18.316,3.058-23.861,8.609
								c-4.719,4.725-7.209,11.061-7.2,18.322c0,7.941,2.925,14.695,8.46,19.531c5.541,4.842,13.284,7.401,22.392,7.401
								c7.557,0,17.674-2.271,22.955-13.088c0.021-0.044,0.066-0.072,0.115-0.072h0.67c0.036,0,0.069,0.015,0.094,0.041
								c0.024,0.026,0.037,0.061,0.034,0.096l-0.731,11.844h8.315V27.97H67.358v7.434H96.07c0.038,0,0.073,0.017,0.098,0.045
								s0.035,0.066,0.029,0.104C94.964,43.078,86.64,47.94,74.99,47.94c-12.659,0-20.839-7.19-20.839-18.318
								c0-11.17,8.234-18.389,20.979-18.389c11.831,0,19.271,4.225,19.938,11.31h10.318c-0.293-5.827-3.287-10.782-8.663-14.338
								C91.268,4.597,83.75,2.69,74.98,2.69z"/>
						</g>
						<g>
							<path d="M117.27,3.742h49.91v8.8h-39.41v11.31h35.05v8.13h-35.05v14.64h39.41v8.87h-49.91L117.27,3.742L117.27,3.742z"/>
							<path d="M167.18,55.621h-49.91c-0.071,0-0.128-0.058-0.128-0.128V3.742c0-0.071,0.058-0.128,0.128-0.128h49.91
								c0.071,0,0.128,0.058,0.128,0.128v8.8c0,0.071-0.058,0.128-0.128,0.128h-39.282v11.053h34.921
								c0.071,0,0.128,0.058,0.128,0.128v8.13c0,0.071-0.058,0.128-0.128,0.128h-34.921v14.383h39.282
								c0.071,0,0.128,0.058,0.128,0.128v8.87C167.309,55.563,167.251,55.621,167.18,55.621z M117.398,55.364h49.653V46.75H127.77
								c-0.071,0-0.128-0.058-0.128-0.128v-14.64c0-0.071,0.058-0.128,0.128-0.128h34.921V23.98H127.77
								c-0.071,0-0.128-0.058-0.128-0.128v-11.31c0-0.071,0.058-0.128,0.128-0.128h39.282V3.871h-49.653V55.364z"/>
						</g>
						<g>
							<path d="M178.05,3.742h9.54l38.75,37.27V3.742h10.5v51.76h-9.61l-38.67-37.27v37.27h-10.5V3.742H178.05z"/>
							<path d="M236.84,55.63h-9.61c-0.033,0-0.065-0.013-0.089-0.036l-38.453-37.061v36.968c0,0.071-0.058,0.128-0.128,0.128h-10.5
								c-0.071,0-0.128-0.058-0.128-0.128V3.792c-0.006-0.016-0.01-0.032-0.01-0.05c0-0.071,0.058-0.128,0.128-0.128h9.54
								c0.033,0,0.065,0.013,0.089,0.036l38.533,37.061V3.742c0-0.071,0.058-0.128,0.128-0.128h10.5
								c0.071,0,0.128,0.058,0.128,0.128v51.76C236.968,55.573,236.911,55.63,236.84,55.63z M227.282,55.374h9.43V3.871h-10.243
								v37.142c0,0.051-0.031,0.098-0.078,0.118c-0.047,0.02-0.102,0.01-0.139-0.026L187.538,3.871h-9.35v51.503h10.243V18.232
								c0-0.051,0.031-0.098,0.078-0.118c0.047-0.02,0.102-0.01,0.139,0.026L227.282,55.374z"/>
						</g>
						<g>
							<path d="M266.63,12.542h-22.92v-8.8h56.42v8.8h-23v42.96h-10.5V12.542L266.63,12.542z"/>
							<path d="M277.13,55.63h-10.5c-0.071,0-0.128-0.058-0.128-0.128V12.67H243.71c-0.071,0-0.128-0.058-0.128-0.128v-8.8
								c0-0.071,0.058-0.128,0.128-0.128h56.42c0.071,0,0.128,0.058,0.128,0.128v8.8c0,0.071-0.057,0.128-0.128,0.128h-22.872
								v42.832C277.258,55.573,277.201,55.63,277.13,55.63z M266.758,55.374h10.244V12.542c0-0.071,0.057-0.128,0.128-0.128h22.872
								V3.871h-56.164v8.543h22.792c0.071,0,0.128,0.058,0.128,0.128V55.374z"/>
						</g>
						<g>
							<path d="M302.79,38.862h10.94c-0.07,5.4,6.51,8.95,17.3,8.95c12.2,0,18.93-2.22,18.93-7.1c0-13.98-45.77,2.22-45.77-21.81
								c0-10.57,11.17-16.34,27.21-16.34c16.86,0,27.95,7.1,28.03,17.82h-10.72c0-5.47-6.51-9.02-17.01-9.02
								c-10.72,0-16.86,2.22-16.86,6.66c0,13.01,45.7-2.07,45.7,22.26c0,10.8-11.46,16.42-29.06,16.42
								C313.81,56.692,302.64,49.442,302.79,38.862z"/>
							<path d="M331.48,56.831c-10.941-0.006-19.685-2.769-24.621-7.778c-2.801-2.842-4.252-6.367-4.197-10.192
								c0.001-0.07,0.058-0.126,0.128-0.126h10.94c0.034,0,0.067,0.014,0.092,0.038c0.023,0.024,0.037,0.058,0.036,0.092
								c-0.021,1.694,0.616,3.21,1.897,4.508c2.745,2.781,8.17,4.312,15.274,4.312c12.476,0,18.802-2.346,18.802-6.972
								c0-5.927-8.421-6.318-18.17-6.771c-12.938-0.602-27.6-1.284-27.6-15.039c0-10.158,10.475-16.468,27.338-16.468
								c8.287,0,15.333,1.698,20.376,4.91c5.051,3.218,7.742,7.726,7.781,13.037c0.001,0.034-0.013,0.067-0.037,0.091
								c-0.023,0.024-0.057,0.038-0.091,0.038h-10.72c-0.071,0-0.128-0.058-0.128-0.128c0-5.401-6.627-8.892-16.882-8.892
								c-10.946,0-16.732,2.259-16.732,6.532c0,5.375,8.088,5.854,17.452,6.41c6.324,0.375,13.492,0.801,18.933,2.886
								c6.269,2.403,9.315,6.644,9.315,12.964c0,5.324-2.69,9.486-7.996,12.373C347.649,55.387,340.321,56.831,331.48,56.831z
								 M302.917,38.99c-0.021,3.757,1.365,7.081,4.125,9.882c4.888,4.96,13.566,7.695,24.438,7.702
								c8.799,0,16.084-1.433,21.068-4.145c5.218-2.838,7.863-6.925,7.863-12.147c0-6.202-2.994-10.364-9.151-12.725
								c-5.403-2.071-12.551-2.496-18.856-2.87c-9.493-0.563-17.692-1.05-17.692-6.666c0-3.097,2.947-6.789,16.988-6.789
								c10.331,0,17.034,3.536,17.137,9.02H359.3c-0.081-5.164-2.729-9.551-7.661-12.693c-5.002-3.186-12-4.87-20.238-4.87
								c-16.704,0-27.082,6.212-27.082,16.211c0,13.51,14.533,14.186,27.355,14.782c9.881,0.459,18.414,0.856,18.414,7.028
								c0,4.796-6.412,7.229-19.058,7.229c-7.174,0-12.663-1.559-15.457-4.389c-1.298-1.315-1.961-2.849-1.972-4.562H302.917z"/>
						</g>
						<g>
							<path d="M369.7,3.742h49.91v8.8H380.2v11.31h35.05v8.13H380.2v14.64h39.41v8.87H369.7V3.742z"/>
							<path d="M419.61,55.621H369.7c-0.071,0-0.128-0.058-0.128-0.128V3.742c0-0.071,0.057-0.128,0.128-0.128h49.91
								c0.071,0,0.128,0.058,0.128,0.128v8.8c0,0.071-0.057,0.128-0.128,0.128h-39.282v11.053h34.922
								c0.071,0,0.128,0.058,0.128,0.128v8.13c0,0.071-0.057,0.128-0.128,0.128h-34.922v14.383h39.282
								c0.071,0,0.128,0.058,0.128,0.128v8.87C419.738,55.563,419.682,55.621,419.61,55.621z M369.828,55.364h49.654V46.75H380.2
								c-0.071,0-0.128-0.058-0.128-0.128v-14.64c0-0.071,0.057-0.128,0.128-0.128h34.922V23.98H380.2
								c-0.071,0-0.128-0.058-0.128-0.128v-11.31c0-0.071,0.057-0.128,0.128-0.128h39.282V3.871h-49.654V55.364z"/>
						</g>
						<g>
							<path d="M25.95,72.542h47.47v8.8H36.45v11.68H69.8v8.13H36.45v23.15h-10.5V72.542z"/>
							<path d="M36.45,124.43h-10.5c-0.071,0-0.128-0.057-0.128-0.128v-51.76c0-0.071,0.058-0.128,0.128-0.128h47.47
								c0.071,0,0.128,0.058,0.128,0.128v8.8c0,0.071-0.058,0.128-0.128,0.128H36.579v11.423H69.8c0.071,0,0.128,0.058,0.128,0.128
								v8.13c0,0.071-0.058,0.128-0.128,0.128H36.579v23.021C36.579,124.373,36.521,124.43,36.45,124.43z M26.079,124.174h10.243
								v-23.021c0-0.071,0.058-0.128,0.128-0.128h33.221V93.15H36.45c-0.071,0-0.128-0.058-0.128-0.128v-11.68
								c0-0.071,0.058-0.128,0.128-0.128h36.841V72.67H26.079V124.174z"/>
						</g>
						<g>
							<path d="M82,72.542h49.91v8.8H92.5v11.31h35.05v8.13H92.5v14.64h39.41v8.87H82V72.542z"/>
							<path d="M131.91,124.42H82c-0.071,0-0.128-0.057-0.128-0.128v-51.75c0-0.071,0.058-0.128,0.128-0.128h49.91
								c0.071,0,0.128,0.058,0.128,0.128v8.8c0,0.071-0.058,0.128-0.128,0.128H92.628v11.053h34.921
								c0.071,0,0.128,0.058,0.128,0.128v8.13c0,0.071-0.058,0.128-0.128,0.128H92.628v14.384h39.282
								c0.071,0,0.128,0.057,0.128,0.128v8.87C132.039,124.363,131.981,124.42,131.91,124.42z M82.128,124.164h49.653v-8.614H92.5
								c-0.071,0-0.128-0.057-0.128-0.128v-14.64c0-0.071,0.058-0.128,0.128-0.128h34.921V92.78H92.5
								c-0.071,0-0.128-0.058-0.128-0.128v-11.31c0-0.071,0.058-0.128,0.128-0.128h39.282V72.67H82.128V124.164z"/>
						</g>
						<g>
							<path d="M142.04,72.542h49.91v8.8h-39.41v11.31h35.05v8.13h-35.05v14.64h39.41v8.87h-49.91V72.542z"/>
							<path d="M191.95,124.42h-49.91c-0.071,0-0.128-0.057-0.128-0.128v-51.75c0-0.071,0.058-0.128,0.128-0.128h49.91
								c0.071,0,0.128,0.058,0.128,0.128v8.8c0,0.071-0.058,0.128-0.128,0.128h-39.282v11.053h34.921
								c0.071,0,0.128,0.058,0.128,0.128v8.13c0,0.071-0.058,0.128-0.128,0.128h-34.921v14.384h39.282
								c0.071,0,0.128,0.057,0.128,0.128v8.87C192.079,124.363,192.021,124.42,191.95,124.42z M142.168,124.164h49.653v-8.614
								H152.54c-0.071,0-0.128-0.057-0.128-0.128v-14.64c0-0.071,0.058-0.128,0.128-0.128h34.921V92.78H152.54
								c-0.071,0-0.128-0.058-0.128-0.128v-11.31c0-0.071,0.058-0.128,0.128-0.128h39.282V72.67h-49.653V124.164z"/>
						</g>
						<g>
							<path d="M199.2,107.672h10.94c-0.07,5.4,6.51,8.95,17.3,8.95c12.2,0,18.93-2.22,18.93-7.1c0-13.98-45.77,2.22-45.77-21.81
								c0-10.57,11.17-16.34,27.21-16.34c16.86,0,27.95,7.1,28.03,17.82h-10.72c0-5.47-6.51-9.02-17.01-9.02
								c-10.72,0-16.86,2.22-16.86,6.66c0,13.01,45.7-2.07,45.7,22.26c0,10.8-11.46,16.42-29.06,16.42
								C210.21,125.492,199.05,118.242,199.2,107.672z"/>
							<path d="M227.89,125.64c-10.947-0.012-19.692-2.777-24.626-7.787c-2.797-2.841-4.247-6.361-4.192-10.183
								c0.001-0.07,0.058-0.126,0.128-0.126h10.94c0.034,0,0.067,0.014,0.091,0.038s0.038,0.058,0.037,0.092
								c-0.022,1.693,0.616,3.21,1.897,4.508c2.745,2.78,8.169,4.312,15.274,4.312c12.476,0,18.802-2.346,18.802-6.972
								c0-5.927-8.42-6.318-18.17-6.772c-12.937-0.602-27.6-1.283-27.6-15.038c0-10.158,10.476-16.468,27.338-16.468
								c8.288,0,15.333,1.698,20.376,4.91c5.051,3.218,7.742,7.726,7.781,13.037c0.001,0.034-0.013,0.067-0.037,0.091
								c-0.023,0.024-0.057,0.038-0.091,0.038h-10.72c-0.071,0-0.128-0.058-0.128-0.128c0-5.401-6.626-8.892-16.882-8.892
								c-10.946,0-16.731,2.259-16.731,6.532c0,5.374,8.087,5.854,17.451,6.41c6.324,0.375,13.492,0.8,18.933,2.886
								c6.269,2.402,9.316,6.644,9.316,12.964c0,5.323-2.69,9.486-7.997,12.373C244.06,124.196,236.731,125.64,227.89,125.64z
								 M199.327,107.8c-0.022,3.753,1.364,7.074,4.12,9.873c4.885,4.96,13.566,7.698,24.443,7.711
								c8.799,0,16.084-1.434,21.069-4.145c5.218-2.838,7.863-6.925,7.863-12.147c0-6.202-2.994-10.364-9.152-12.725
								c-5.403-2.071-12.55-2.495-18.856-2.869c-9.494-0.563-17.693-1.05-17.693-6.666c0-3.097,2.947-6.789,16.988-6.789
								c10.331,0,17.035,3.536,17.137,9.02h10.463c-0.081-5.164-2.729-9.551-7.662-12.693c-5.001-3.186-12-4.87-20.238-4.87
								c-16.705,0-27.082,6.212-27.082,16.211c0,13.51,14.533,14.186,27.355,14.782c9.881,0.459,18.415,0.856,18.415,7.028
								c0,4.796-6.412,7.228-19.059,7.228c-7.174,0-12.664-1.559-15.457-4.389c-1.298-1.314-1.961-2.849-1.972-4.562H199.327z"/>
						</g>
						<g>
							<path d="M280.76,81.342h-22.92v-8.8h56.42v8.8h-23v42.96h-10.5V81.342L280.76,81.342z"/>
							<path d="M291.26,124.43h-10.5c-0.071,0-0.128-0.057-0.128-0.128V81.47H257.84c-0.071,0-0.128-0.058-0.128-0.128v-8.8
								c0-0.071,0.057-0.128,0.128-0.128h56.42c0.071,0,0.128,0.058,0.128,0.128v8.8c0,0.071-0.057,0.128-0.128,0.128h-22.872
								v42.832C291.388,124.373,291.331,124.43,291.26,124.43z M280.888,124.174h10.244V81.342c0-0.071,0.057-0.128,0.128-0.128
								h22.872V72.67h-56.164v8.543h22.792c0.071,0,0.128,0.058,0.128,0.128V124.174z"/>
						</g>
						<g>
							<path d="M320.31,72.542h49.91v8.8h-39.41v11.31h35.05v8.13h-35.05v14.64h39.41v8.87h-49.91V72.542z"/>
							<path d="M370.22,124.42h-49.91c-0.071,0-0.128-0.057-0.128-0.128v-51.75c0-0.071,0.057-0.128,0.128-0.128h49.91
								c0.071,0,0.128,0.058,0.128,0.128v8.8c0,0.071-0.057,0.128-0.128,0.128h-39.282v11.053h34.923
								c0.071,0,0.128,0.058,0.128,0.128v8.13c0,0.071-0.057,0.128-0.128,0.128h-34.923v14.384h39.282
								c0.071,0,0.128,0.057,0.128,0.128v8.87C370.348,124.363,370.291,124.42,370.22,124.42z M320.438,124.164h49.654v-8.614
								H330.81c-0.071,0-0.128-0.057-0.128-0.128v-14.64c0-0.071,0.057-0.128,0.128-0.128h34.923V92.78H330.81
								c-0.071,0-0.128-0.058-0.128-0.128v-11.31c0-0.071,0.057-0.128,0.128-0.128h39.282V72.67h-49.654V124.164z"/>
						</g>
						<g>
							<path d="M380.35,72.542h9.54l38.75,37.27v-37.27h10.5v51.76h-9.61l-38.68-37.26v37.27h-10.5L380.35,72.542L380.35,72.542z"/>
							<path d="M390.85,124.439h-10.5c-0.071,0-0.128-0.057-0.128-0.128v-51.77c0-0.071,0.057-0.128,0.128-0.128h9.54
								c0.033,0,0.065,0.013,0.089,0.036l38.533,37.06V72.542c0-0.071,0.057-0.128,0.128-0.128h10.5
								c0.071,0,0.128,0.058,0.128,0.128v51.76c0,0.071-0.057,0.128-0.128,0.128h-9.609c-0.033,0-0.065-0.013-0.089-0.035
								l-38.464-37.051v36.968C390.978,124.383,390.921,124.439,390.85,124.439z M380.478,124.184h10.244V87.042
								c0-0.051,0.03-0.098,0.078-0.118c0.046-0.021,0.102-0.01,0.139,0.026l38.644,37.224h9.43V72.67h-10.244v37.141
								c0,0.052-0.03,0.098-0.078,0.118c-0.047,0.02-0.103,0.01-0.139-0.025L389.838,72.67h-9.36V124.184z"/>
						</g>
					</g>
				</g>
			</g>
		</g>
		<g>
			<path class="st0" d="M151.44,151.992c0-3.16,1.68-5.3,4.34-5.3c1.68,0,2.78,0.94,3.24,1.64v-1.72v-3.62h2.84v14h-2.76v-1.34
				c-0.46,0.68-1.6,1.66-3.32,1.66C153.12,157.312,151.44,155.152,151.44,151.992z M159.15,151.992c0-2.12-0.96-3.16-2.36-3.16
				c-1.32,0-2.36,0.82-2.36,3.16s1.04,3.16,2.36,3.16C158.18,155.152,159.15,154.112,159.15,151.992z"/>
			<path class="st0" d="M164.5,142.942h3.02v2.68h-3.02V142.942z M164.6,146.982h2.84v10h-2.84V146.982z"/>
			<path class="st0" d="M169.3,158.832c0-0.88,0.6-1.6,1.18-1.98c-0.58-0.4-0.94-0.94-0.94-1.84c0-1,0.76-1.74,1.58-2.18
				c-0.66-0.54-1.08-1.44-1.08-2.4c0-2.24,1.82-3.74,4.34-3.74c1.8,0,3.24,0.82,3.9,2.02c0.06-1.32,0.44-1.72,1.78-1.72h0.76v2.16
				h-1.1c-0.62,0-0.78,0.14-0.9,1.16l-0.02,0.18c-0.24,2.16-1.98,3.48-4.32,3.48c-0.74,0-1.48-0.08-2.08-0.34
				c-0.56,0.16-0.76,0.38-0.76,0.7c0,0.42,0.42,0.44,1,0.44h4.3c2.14,0,3.48,1.4,3.48,3.02c0,2.02-1.52,3.1-3.48,3.1h-4.64
				C170.18,160.892,169.3,160.112,169.3,158.832z M176.38,158.832c0.94,0,1.24-0.38,1.24-0.94c0-0.46-0.3-0.9-1.24-0.9H172
				c-0.24,0.14-0.52,0.5-0.52,0.9c0,0.64,0.46,0.94,1,0.94H176.38z M176.22,150.412c0-1.04-0.7-1.8-1.76-1.8s-1.76,0.76-1.76,1.8
				c0,1.02,0.7,1.7,1.76,1.7S176.22,151.432,176.22,150.412z"/>
			<path class="st0" d="M182.34,142.942h3.02v2.68h-3.02V142.942z M182.44,146.982h2.84v10h-2.84V146.982z"/>
			<path class="st0" d="M189.02,154.372v-5.22h-2.1v-2.16h2.1v-3.14h2.84v3.14h2.6v2.16h-2.6v4.7c0,0.6,0.26,0.88,0.88,0.88h2.16
				v2.26h-3.34C189.94,156.992,189.02,155.932,189.02,154.372z"/>
			<path class="st0" d="M196.14,154.432c0-2.8,2.96-3.62,6.28-3.94v-0.38c0-0.86-0.5-1.38-1.64-1.38c-1.3,0-1.96,0.64-2.2,1.58
				l-2.56-0.56c0.16-1.56,1.82-3.06,4.74-3.06c2.8,0,4.46,1.24,4.46,3.88v3.66c0,0.5,0.06,0.6,0.6,0.6h0.88v2.16h-2.18
				c-1.12,0-1.7-0.56-1.8-1.46c-0.54,0.84-1.66,1.78-3.42,1.78C197.5,157.312,196.14,156.192,196.14,154.432z M202.42,152.892v-0.64
				c-1.84,0.22-3.4,0.58-3.4,1.9c0,0.66,0.44,1.08,1.3,1.08C201.42,155.232,202.42,154.512,202.42,152.892z"/>
			<path class="st0" d="M207.62,154.432c0-2.8,2.96-3.62,6.28-3.94v-0.38c0-0.86-0.5-1.38-1.64-1.38c-1.3,0-1.96,0.64-2.2,1.58
				l-2.56-0.56c0.16-1.56,1.82-3.06,4.74-3.06c2.8,0,4.46,1.24,4.46,3.88v3.66c0,0.5,0.06,0.6,0.6,0.6h0.88v2.16H216
				c-1.12,0-1.7-0.56-1.8-1.46c-0.54,0.84-1.66,1.78-3.42,1.78C208.98,157.312,207.62,156.192,207.62,154.432z M213.9,152.892v-0.64
				c-1.84,0.22-3.4,0.58-3.4,1.9c0,0.66,0.44,1.08,1.3,1.08C212.9,155.232,213.9,154.512,213.9,152.892z"/>
			<path class="st0" d="M219.68,142.982h2.84v14h-2.84V142.982z"/>
			<path class="st0" d="M229.32,151.972c0-3.14,2.16-5.28,5.06-5.28c3.36,0,5.12,2.64,4.84,5.98h-7.06
				c0.08,1.76,1.02,2.48,2.24,2.48c1.28,0,1.9-0.8,2.32-1.74l2.54,0.98c-0.56,1.28-1.82,2.92-4.86,2.92
				C231.32,157.312,229.32,155.252,229.32,151.972z M236.42,150.662c-0.12-1.24-0.84-1.94-2.04-1.94c-1.14,0-1.92,0.68-2.12,1.94
				H236.42z"/>
			<path class="st0" d="M241.38,146.982h2.76v1.54c0.42-0.68,1.38-1.84,3.22-1.84c2.32,0,3.3,1.42,3.3,3.6v6.7h-2.84v-6.08
				c0-1.32-0.62-1.88-1.6-1.88c-1.98,0-2,2.16-2,3.22v4.74h-2.84V146.982z"/>
			<path class="st0" d="M257.34,151.972c0-3.22,2.36-5.28,5.38-5.28c2.4,0,4.1,1.3,4.76,3l-2.62,0.98c-0.4-1.14-1.2-1.74-2.24-1.74
				c-1.34,0-2.42,0.98-2.42,3.04s1.12,3.08,2.44,3.08c1.16,0,1.88-0.62,2.32-1.9l2.68,0.96c-0.76,1.92-2.58,3.2-4.94,3.2
				C259.62,157.312,257.34,155.192,257.34,151.972z"/>
			<path class="st0" d="M269.42,146.982h2.78v2.28c0.34-0.82,1.22-2.48,3.64-2.48c0.16,0,0.3,0,0.46,0.02v2.92
				c-0.4-0.04-0.76-0.06-1.1-0.06c-2.04,0-2.94,0.8-2.94,3.3v4.02h-2.84V146.982z"/>
			<path class="st0" d="M277.16,151.972c0-3.14,2.16-5.28,5.06-5.28c3.36,0,5.12,2.64,4.84,5.98H280c0.08,1.76,1.02,2.48,2.24,2.48
				c1.28,0,1.9-0.8,2.32-1.74l2.54,0.98c-0.56,1.28-1.82,2.92-4.86,2.92C279.16,157.312,277.16,155.252,277.16,151.972z
				 M284.26,150.662c-0.12-1.24-0.84-1.94-2.04-1.94c-1.14,0-1.92,0.68-2.12,1.94H284.26z"/>
			<path class="st0" d="M288.64,154.432c0-2.8,2.96-3.62,6.28-3.94v-0.38c0-0.86-0.5-1.38-1.64-1.38c-1.3,0-1.96,0.64-2.2,1.58
				l-2.56-0.56c0.16-1.56,1.82-3.06,4.74-3.06c2.8,0,4.46,1.24,4.46,3.88v3.66c0,0.5,0.06,0.6,0.6,0.6h0.88v2.16h-2.18
				c-1.12,0-1.7-0.56-1.8-1.46c-0.54,0.84-1.66,1.78-3.42,1.78C290,157.312,288.64,156.192,288.64,154.432z M294.92,152.892v-0.64
				c-1.84,0.22-3.4,0.58-3.4,1.9c0,0.66,0.44,1.08,1.3,1.08C293.92,155.232,294.92,154.512,294.92,152.892z"/>
			<path class="st0" d="M301.56,154.372v-5.22h-2.1v-2.16h2.1v-3.14h2.84v3.14h2.6v2.16h-2.6v4.7c0,0.6,0.26,0.88,0.88,0.88h2.16
				v2.26h-3.34C302.48,156.992,301.56,155.932,301.56,154.372z"/>
			<path class="st0" d="M309.14,142.942h3.02v2.68h-3.02V142.942z M309.24,146.982h2.84v10h-2.84V146.982z"/>
			<path class="st0" d="M314.14,151.972c0-3.14,2.16-5.28,5.06-5.28c3.36,0,5.12,2.64,4.84,5.98h-7.06
				c0.08,1.76,1.02,2.48,2.24,2.48c1.28,0,1.9-0.8,2.32-1.74l2.54,0.98c-0.56,1.28-1.82,2.92-4.86,2.92
				C316.14,157.312,314.14,155.252,314.14,151.972z M321.24,150.662c-0.12-1.24-0.84-1.94-2.04-1.94c-1.14,0-1.92,0.68-2.12,1.94
				H321.24z"/>
			<path class="st0" d="M326.98,149.142h-1.94v-2.16h1.94v-1.38c0-1.56,0.88-2.62,2.5-2.62h3.08v2.26h-1.86
				c-0.62,0-0.88,0.28-0.88,0.88v0.86h2.32v2.16h-2.32v7.84h-2.84V149.142z"/>
			<path class="st0" d="M337.62,154.432c0-2.8,2.96-3.62,6.28-3.94v-0.38c0-0.86-0.5-1.38-1.64-1.38c-1.3,0-1.96,0.64-2.2,1.58
				l-2.56-0.56c0.16-1.56,1.82-3.06,4.74-3.06c2.8,0,4.46,1.24,4.46,3.88v3.66c0,0.5,0.06,0.6,0.6,0.6h0.88v2.16H346
				c-1.12,0-1.7-0.56-1.8-1.46c-0.54,0.84-1.66,1.78-3.42,1.78C338.98,157.312,337.62,156.192,337.62,154.432z M343.9,152.892v-0.64
				c-1.84,0.22-3.4,0.58-3.4,1.9c0,0.66,0.44,1.08,1.3,1.08C342.9,155.232,343.9,154.512,343.9,152.892z"/>
			<path class="st0" d="M349.68,142.982h2.84v14h-2.84V142.982z"/>
			<path class="st0" d="M356.3,154.372v-5.22h-2.1v-2.16h2.1v-3.14h2.84v3.14h2.6v2.16h-2.6v4.7c0,0.6,0.26,0.88,0.88,0.88h2.16
				v2.26h-3.34C357.22,156.992,356.3,155.932,356.3,154.372z"/>
			<path class="st0" d="M363.2,151.972c0-3.14,2.16-5.28,5.06-5.28c3.36,0,5.12,2.64,4.84,5.98h-7.06c0.08,1.76,1.02,2.48,2.24,2.48
				c1.28,0,1.9-0.8,2.32-1.74l2.54,0.98c-0.56,1.28-1.82,2.92-4.86,2.92C365.2,157.312,363.2,155.252,363.2,151.972z M370.3,150.662
				c-0.12-1.24-0.84-1.94-2.04-1.94c-1.14,0-1.92,0.68-2.12,1.94H370.3z"/>
			<path class="st0" d="M375.26,146.982h2.78v2.28c0.34-0.82,1.22-2.48,3.64-2.48c0.16,0,0.3,0,0.46,0.02v2.92
				c-0.4-0.04-0.76-0.06-1.1-0.06c-2.04,0-2.94,0.8-2.94,3.3v4.02h-2.84V146.982z"/>
			<path class="st0" d="M383.86,146.982h2.76v1.54c0.42-0.68,1.38-1.84,3.22-1.84c2.32,0,3.3,1.42,3.3,3.6v6.7h-2.84v-6.08
				c0-1.32-0.62-1.88-1.6-1.88c-1.98,0-2,2.16-2,3.22v4.74h-2.84V146.982L383.86,146.982z"/>
			<path class="st0" d="M395.22,154.432c0-2.8,2.96-3.62,6.28-3.94v-0.38c0-0.86-0.5-1.38-1.64-1.38c-1.3,0-1.96,0.64-2.2,1.58
				l-2.56-0.56c0.16-1.56,1.82-3.06,4.74-3.06c2.8,0,4.46,1.24,4.46,3.88v3.66c0,0.5,0.06,0.6,0.6,0.6h0.88v2.16h-2.18
				c-1.12,0-1.7-0.56-1.8-1.46c-0.54,0.84-1.66,1.78-3.42,1.78C396.58,157.312,395.22,156.192,395.22,154.432z M401.5,152.892v-0.64
				c-1.84,0.22-3.4,0.58-3.4,1.9c0,0.66,0.44,1.08,1.3,1.08C400.5,155.232,401.5,154.512,401.5,152.892z"/>
			<path class="st0" d="M408.14,154.372v-5.22h-2.1v-2.16h2.1v-3.14h2.84v3.14h2.6v2.16h-2.6v4.7c0,0.6,0.26,0.88,0.88,0.88h2.16
				v2.26h-3.34C409.06,156.992,408.14,155.932,408.14,154.372z"/>
			<path class="st0" d="M415.72,142.942h3.02v2.68h-3.02V142.942z M415.82,146.982h2.84v10h-2.84V146.982z"/>
			<path class="st0" d="M420.72,151.972c0-3.14,2.16-5.28,5.06-5.28c3.36,0,5.12,2.64,4.84,5.98h-7.06
				c0.08,1.76,1.02,2.48,2.24,2.48c1.28,0,1.9-0.8,2.32-1.74l2.54,0.98c-0.56,1.28-1.82,2.92-4.86,2.92
				C422.72,157.312,420.72,155.252,420.72,151.972z M427.82,150.662c-0.12-1.24-0.84-1.94-2.04-1.94c-1.14,0-1.92,0.68-2.12,1.94
				H427.82z"/>
			<path class="st0" d="M433.56,149.142h-1.94v-2.16h1.94v-1.38c0-1.56,0.88-2.62,2.5-2.62h3.08v2.26h-1.86
				c-0.62,0-0.88,0.28-0.88,0.88v0.86h2.32v2.16h-2.32v7.84h-2.84V149.142z"/>
		</g>
	</g>
	<path d="M0.07,41.302c2.13-0.61,4.26-1.24,6.39-1.83c10.96-3.03,22.01-5.72,33.09-8.25c8.13-1.85,16.26-3.69,24.42-5.42
		c7.51-1.59,15.04-3.08,22.57-4.52c6.94-1.32,13.89-2.58,20.85-3.77c6.43-1.1,12.88-2.11,19.33-3.12
		c5.39-0.84,10.79-1.63,16.19-2.39c5.1-0.72,10.2-1.38,15.31-2.04c4.35-0.56,8.69-1.11,13.05-1.63c3.72-0.45,7.44-0.85,11.16-1.26
		c3.67-0.41,7.34-0.82,11.02-1.2c3.98-0.41,7.96-0.78,11.94-1.15c3.75-0.35,7.51-0.69,11.26-1c3.1-0.26,6.2-0.47,9.3-0.69
		c2.92-0.21,5.84-0.42,8.77-0.61c3.33-0.22,6.66-0.42,9.99-0.61c2.87-0.17,5.75-0.31,8.62-0.46c2.26-0.11,4.53-0.21,6.8-0.31
		c2.6-0.11,5.19-0.22,7.79-0.3c3.31-0.11,6.63-0.21,9.94-0.31c2.09-0.06,4.18-0.11,6.27-0.15c2.78-0.06,5.56-0.13,8.34-0.15
		c9.73-0.06,19.46-0.09,29.19-0.13c1.89-0.01,3.78,0.02,5.67,0.04c3.14,0.04,6.28,0.09,9.41,0.15c2.07,0.04,4.13,0.09,6.2,0.15
		c2.96,0.09,5.91,0.18,8.87,0.31c2.52,0.11,5.04,0.26,7.56,0.38c1.65,0.08,3.31,0.13,4.96,0.23c1.91,0.11,3.81,0.26,5.72,0.38
		c1.27,0.08,2.54,0.15,3.81,0.23c2.08,0.13,4.17,0.27,6.25,0.42c2.13,0.15,4.27,0.3,6.4,0.5c3.04,0.28,6.08,0.6,9.12,0.92
		c0.7,0.07,0.86,0.37,0.59,0.96c-0.13,0.29-0.32,0.33-0.61,0.3c-1.6-0.15-3.19-0.29-4.79-0.43c-1.75-0.15-3.5-0.31-5.25-0.45
		c-2.89-0.24-5.78-0.47-8.68-0.69c-2.03-0.15-4.07-0.26-6.1-0.39c-1.98-0.13-3.96-0.27-5.95-0.38c-1.65-0.09-3.31-0.16-4.96-0.23
		c-2.32-0.1-4.63-0.2-6.95-0.3c-0.84-0.04-1.68-0.07-2.52-0.09c-2.24-0.06-4.49-0.11-6.73-0.15c-3.47-0.07-6.94-0.18-10.41-0.21
		c-8.35-0.07-16.7-0.11-25.05-0.15c-1.86-0.01-3.73,0.03-5.59,0.06c-2.37,0.04-4.74,0.09-7.12,0.15c-3.39,0.09-6.78,0.19-10.17,0.31
		c-2.55,0.09-5.09,0.19-7.64,0.31c-2.42,0.11-4.83,0.26-7.25,0.38c-1.65,0.08-3.31,0.14-4.96,0.23c-1.4,0.07-2.8,0.16-4.2,0.25
		c-1.93,0.12-3.86,0.23-5.79,0.36c-1.93,0.13-3.86,0.27-5.79,0.41c-2.34,0.17-4.67,0.33-7.01,0.51c-2.28,0.18-4.57,0.37-6.85,0.56
		c-3.15,0.27-6.29,0.53-9.43,0.82c-3.45,0.32-6.89,0.66-10.34,1.03c-5.65,0.61-11.29,1.21-16.93,1.88
		c-4.53,0.53-9.05,1.13-13.57,1.75c-5.6,0.76-11.21,1.54-16.8,2.38c-4.61,0.69-9.22,1.43-13.81,2.21
		c-5.63,0.96-11.25,1.96-16.86,2.98c-3.14,0.57-6.26,1.2-9.39,1.8c-0.12,0.02-0.23,0.06-0.33,0.19c0.58-0.06,1.16-0.1,1.73-0.17
		c3.67-0.4,7.34-0.81,11.01-1.19c2.99-0.31,5.98-0.58,8.97-0.85c3.7-0.34,7.4-0.68,11.11-0.99c3.05-0.25,6.09-0.49,9.14-0.69
		c3.48-0.23,6.95-0.64,10.41-1.08c3.21-0.4,6.42-0.78,9.64-1.16c3.06-0.36,6.12-0.71,9.19-1.04c2.76-0.3,5.52-0.57,8.29-0.83
		c4.18-0.4,8.36-0.81,12.55-1.17c3.55-0.31,7.11-0.57,10.66-0.84c2.69-0.21,5.38-0.41,8.07-0.61c3.12-0.23,6.25-0.47,9.37-0.69
		c2.08-0.14,4.17-0.25,6.25-0.38c1.83-0.12,3.66-0.27,5.49-0.38c2.26-0.14,4.53-0.25,6.79-0.38c1.98-0.12,3.96-0.26,5.95-0.38
		c1.53-0.09,3.05-0.15,4.58-0.23c1.75-0.09,3.51-0.19,5.26-0.29c1.14-0.06,2.29-0.11,3.44-0.17c1.98-0.1,3.97-0.2,5.95-0.3
		c1.37-0.06,2.75-0.1,4.13-0.16c2.16-0.09,4.33-0.2,6.49-0.29c1.48-0.06,2.95-0.11,4.43-0.16c2.88-0.1,5.76-0.2,8.64-0.3
		c0.94-0.03,1.89-0.07,2.83-0.09c1.53-0.03,3.06-0.04,4.59-0.07c2.55-0.05,5.1-0.1,7.65-0.15c1.53-0.03,3.06-0.07,4.59-0.08
		c2.53-0.03,5.05-0.06,7.58-0.07c7.3-0.03,14.61-0.07,21.91-0.08c2.48,0,4.95,0.05,7.43,0.08c1.99,0.02,3.98,0.04,5.97,0.07
		c3.04,0.05,6.07,0.1,9.11,0.15c2.3,0.04,4.59,0.1,6.89,0.15c1.78,0.04,3.57,0.09,5.35,0.15c2.65,0.09,5.3,0.17,7.95,0.31
		c3.13,0.17,6.26,0.35,9.38,0.61c3.07,0.25,6.14,0.55,9.19,0.93c1.56,0.19,3.1,0.61,4.64,0.93c0.09,0.02,0.17,0.1,0.25,0.15
		c-0.09,0.3-0.28,0.27-0.49,0.2c-1.72-0.52-3.49-0.74-5.26-0.91c-2.23-0.22-4.47-0.43-6.7-0.6c-2.06-0.16-4.12-0.29-6.18-0.39
		c-2.09-0.1-4.18-0.15-6.27-0.23c-2.27-0.08-4.53-0.18-6.8-0.23c-2.04-0.05-4.08-0.05-6.13-0.07c-4.29-0.05-8.58-0.12-12.87-0.15
		c-9.81-0.06-19.61-0.11-29.42-0.15c-2.66-0.01-5.31,0.03-7.97,0.06c-3.45,0.04-6.89,0.09-10.34,0.16
		c-2.17,0.04-4.34,0.09-6.51,0.15c-2.93,0.09-5.86,0.2-8.79,0.3c-1.86,0.06-3.72,0.09-5.58,0.16c-1.71,0.06-3.41,0.15-5.12,0.23
		c-0.74,0.03-1.48,0.04-2.22,0.08c-2.19,0.1-4.38,0.2-6.57,0.3c-1.35,0.06-2.7,0.1-4.05,0.16c-1.73,0.08-3.46,0.18-5.19,0.27
		c-1.17,0.06-2.34,0.12-3.51,0.18c-1.65,0.09-3.31,0.17-4.96,0.26c-2.06,0.11-4.12,0.23-6.18,0.35c-1.42,0.08-2.85,0.18-4.27,0.26
		c-1.91,0.12-3.81,0.23-5.72,0.35c-2.08,0.13-4.17,0.28-6.25,0.42c-1.75,0.12-3.51,0.22-5.26,0.35c-1.96,0.14-3.91,0.29-5.87,0.43
		c-2.31,0.17-4.62,0.32-6.93,0.49c-2.36,0.18-4.72,0.36-7.08,0.55c-2.72,0.22-5.43,0.43-8.14,0.67c-2.61,0.23-5.22,0.47-7.83,0.73
		c-3.78,0.36-7.55,0.73-11.33,1.11c-0.55,0.05-1.09,0.17-1.64,0.28c1.69-0.09,3.37-0.19,5.06-0.27c1.3-0.06,2.6-0.11,3.9-0.16
		c2.29-0.1,4.58-0.2,6.87-0.3c0.71-0.03,1.43-0.05,2.14-0.07c1.81-0.05,3.62-0.09,5.43-0.16c2.24-0.08,4.48-0.19,6.72-0.29
		c2.11-0.1,4.22-0.2,6.34-0.32c2.31-0.12,4.63-0.26,6.94-0.38c1.27-0.07,2.55-0.11,3.82-0.16c2.34-0.1,4.68-0.2,7.03-0.3
		c0.74-0.03,1.48-0.05,2.22-0.07c1.94-0.05,3.87-0.1,5.81-0.16c2.96-0.08,5.91-0.16,8.87-0.24c2.24-0.06,4.49-0.11,6.73-0.15
		c1.86-0.03,3.73-0.05,5.59-0.07c2.5-0.03,5-0.06,7.5-0.08c3.5-0.03,7-0.06,10.5-0.06c3.78,0,7.56,0.03,11.34,0.07
		c3.27,0.03,6.53,0.09,9.8,0.15c2.32,0.04,4.64,0.1,6.96,0.15c1.91,0.05,3.82,0.09,5.74,0.15c3.08,0.1,6.17,0.2,9.25,0.31
		c2.6,0.09,5.2,0.2,7.79,0.31c2.24,0.09,4.48,0.19,6.72,0.31c2.7,0.14,5.39,0.31,8.09,0.45c2.06,0.11,4.12,0.19,6.18,0.32
		c2.97,0.18,5.95,0.4,8.92,0.6c2.36,0.16,4.73,0.3,7.09,0.47c2.39,0.17,4.77,0.37,7.16,0.56c2.66,0.22,5.33,0.43,7.99,0.66
		c2.61,0.23,5.22,0.49,7.83,0.74c3.8,0.36,7.61,0.71,11.4,1.1c4.41,0.46,8.81,0.95,13.21,1.45c4.61,0.52,9.21,1.05,13.81,1.6
		c1.37,0.16,2.73,0.37,4.08,0.61c1.54,0.28,1.57,0.58,1.04,1.96c0.22,0.05,0.43,0.11,0.64,0.14c6.01,0.96,12.04,1.85,18.04,2.89
		c6.13,1.06,12.23,2.26,18.34,3.4c0.17,0.03,0.33,0.1,0.49,0.15c0,0.05,0,0.1,0,0.15c-1.13-0.17-2.27-0.32-3.4-0.5
		c-7.75-1.27-15.48-2.6-23.24-3.79c-5.71-0.87-11.46-1.57-17.19-2.3c-3.89-0.49-7.79-0.92-11.69-1.33
		c-2.99-0.32-5.98-0.57-8.97-0.85c-3.14-0.29-6.29-0.58-9.43-0.84c-2.33-0.2-4.67-0.36-7.01-0.54c-3.07-0.23-6.14-0.47-9.22-0.69
		c-2.13-0.15-4.27-0.26-6.41-0.38c-0.73-0.04-1.47-0.1-2.22-0.01c0.42,0.05,0.83,0.11,1.25,0.16c4.43,0.53,8.86,1.02,13.27,1.61
		c3.26,0.43,6.5,1,9.74,1.51c0.08,0.01,0.15,0.02,0.23,0.04c0.93,0.23,1.13,0.85,0.52,1.61c-0.2,0.25-0.45,0.19-0.7,0.16
		c-1.26-0.15-2.53-0.3-3.79-0.45c-3.51-0.42-7.03-0.86-10.55-1.24c-4.2-0.45-8.41-0.84-12.62-1.24c-3.17-0.3-6.34-0.58-9.51-0.84
		c-2.41-0.2-4.83-0.36-7.24-0.54c-2.34-0.17-4.67-0.37-7.01-0.53c-2.08-0.14-4.17-0.25-6.25-0.38c-1.93-0.12-3.86-0.26-5.79-0.38
		c-1.53-0.09-3.05-0.15-4.58-0.23c-1.73-0.09-3.46-0.19-5.19-0.28c-1.27-0.07-2.55-0.12-3.82-0.18c-2.01-0.1-4.02-0.2-6.03-0.29
		c-1.45-0.06-2.9-0.07-4.34-0.12c-1.09-0.03-2.18-0.09-3.28-0.13c-0.28-0.01-0.56,0-0.84,0.05c1.71,0.08,3.43,0.16,5.14,0.25
		c1.78,0.09,3.56,0.18,5.34,0.27c1.17,0.06,2.34,0.12,3.51,0.19c1.42,0.08,2.85,0.16,4.27,0.25c1.86,0.12,3.71,0.23,5.56,0.36
		c1.85,0.13,3.71,0.27,5.56,0.41c2.21,0.17,4.42,0.33,6.62,0.51c2.11,0.17,4.21,0.36,6.31,0.56c3.88,0.37,7.76,0.72,11.63,1.13
		c3.77,0.4,7.54,0.84,11.31,1.3c5.06,0.62,10.11,1.23,15.16,1.91c6.09,0.81,12.18,1.61,18.21,2.75c0.8,0.15,1.59,0.36,2.37,0.6
		c0.9,0.28,1.03,0.46,0.97,1.03c-0.1,0.92-0.5,1.42-1.32,1.47c-0.74,0.05-1.48,0.04-2.22,0.01c-2.01-0.08-4.02-0.18-6.03-0.29
		c-2.21-0.12-4.43-0.26-6.64-0.38c-1.63-0.09-3.26-0.15-4.89-0.23c-1.78-0.09-3.56-0.19-5.34-0.28c-1.25-0.06-2.5-0.12-3.74-0.18
		c-2.06-0.1-4.12-0.2-6.19-0.29c-1.43-0.06-2.85-0.11-4.28-0.17c-2.39-0.1-4.79-0.2-7.18-0.29c-1.66-0.06-3.31-0.12-4.97-0.17
		c-3.29-0.1-6.58-0.2-9.87-0.3c-1.25-0.04-2.5-0.07-3.75-0.09c-2.65-0.05-5.31-0.1-7.96-0.15c-0.25,0-0.51,0-0.77,0.1
		c1.63,0.22,3.26,0.44,4.89,0.66c3.13,0.42,6.26,0.83,9.39,1.28c4.09,0.58,8.17,1.17,12.25,1.78c4.46,0.67,8.92,1.34,13.37,2.07
		c5.28,0.86,10.56,1.74,15.83,2.67c5.09,0.9,10.18,1.85,15.26,2.81c6.36,1.19,12.72,2.44,19.08,3.6c6.37,1.16,12.75,2.24,19.12,3.38
		c0.89,0.16,1.76,0.47,2.64,0.71c0.35,0.09,0.47,0.35,0.38,0.64c-0.2,0.65-0.43,1.29-0.7,1.91c-0.13,0.3-0.46,0.29-0.74,0.25
		c-0.73-0.11-1.47-0.2-2.19-0.37c-6.38-1.52-12.86-2.51-19.29-3.77c-6.18-1.21-12.36-2.42-18.55-3.6
		c-5.86-1.12-11.72-2.22-17.6-3.28c-5.24-0.94-10.49-1.86-15.75-2.71c-6.39-1.03-12.8-1.99-19.2-2.95
		c-4.51-0.68-9.03-1.32-13.55-1.94c-4.06-0.56-8.14-1.07-12.21-1.58c-3.67-0.46-7.34-0.9-11.01-1.34c-2.13-0.25-4.25-0.47-6.38-0.7
		c-0.25-0.03-0.51-0.01-0.77-0.01c-5.75,0-11.49-0.01-17.24,0c-3.27,0.01-6.54,0.03-9.81,0.07c-3.52,0.04-7.05,0.09-10.57,0.15
		c-2.6,0.04-5.21,0.1-7.81,0.15c-2.12,0.05-4.24,0.09-6.35,0.15c-3.57,0.1-7.14,0.2-10.71,0.31c-2.96,0.09-5.91,0.2-8.87,0.3
		c-2.63,0.1-5.25,0.2-7.87,0.31c-2.32,0.1-4.64,0.19-6.95,0.31c-2.83,0.14-5.65,0.3-8.48,0.45c-2.19,0.11-4.38,0.2-6.57,0.32
		c-2.37,0.13-4.73,0.29-7.1,0.44c-1.91,0.11-3.82,0.21-5.73,0.33c-2.03,0.13-4.07,0.28-6.1,0.42c-2.47,0.17-4.93,0.32-7.4,0.5
		c-2.44,0.18-4.88,0.37-7.32,0.56c-2.82,0.22-5.64,0.43-8.46,0.67c-2.72,0.23-5.43,0.48-8.15,0.73c-3.96,0.36-7.92,0.71-11.87,1.11
		c-4.03,0.4-8.06,0.85-12.09,1.3c-3.8,0.42-7.6,0.85-11.39,1.3c-3.44,0.41-6.88,0.86-10.32,1.32c-3.94,0.52-7.88,1.04-11.82,1.59
		c-4.04,0.57-8.07,1.16-12.11,1.77c-4.44,0.67-8.87,1.34-13.3,2.04c-4.26,0.67-8.51,1.36-12.76,2.07
		c-5.26,0.88-10.51,1.76-15.76,2.68c-5.25,0.92-10.49,1.87-15.73,2.82c-4.39,0.79-8.78,1.59-13.17,2.4
		c-0.34,0.06-0.68,0.18-1.02,0.27c-0.2,0-0.41,0-0.61,0c-0.27-0.33-0.59-0.63-0.81-0.99c-0.6-0.95-0.6-1.47,0.69-1.78
		c3.86-0.94,7.7-1.98,11.58-2.86c6.83-1.55,13.68-3.08,20.54-4.49c6.77-1.39,13.56-2.67,20.35-3.92c6.49-1.2,13-2.33,19.51-3.42
		c5.63-0.95,11.27-1.84,16.91-2.68c5.24-0.79,10.49-1.5,15.74-2.21c4.57-0.62,9.14-1.21,13.72-1.76c5.94-0.71,11.89-1.38,17.84-2.05
		c2.83-0.32,5.67-0.59,8.51-0.9c0.73-0.08,1.45-0.22,2.17-0.33c0.42,0,0.84,0,1.26,0c0-0.03,0-0.07-0.01-0.1
		c-0.41,0.04-0.83,0.07-1.24,0.11c-0.66,0.05-1.32,0.11-1.98,0.17c-2.69,0.24-5.38,0.47-8.06,0.74c-3.27,0.32-6.54,0.65-9.8,1
		c-3.47,0.38-6.93,0.78-10.4,1.19c-4.33,0.51-8.65,1.02-12.97,1.57c-4.45,0.57-8.89,1.18-13.33,1.79c-4.42,0.61-8.83,1.23-13.24,1.9
		c-4.74,0.71-9.47,1.45-14.2,2.23c-5.81,0.96-11.61,1.94-17.41,2.98c-5.87,1.05-11.73,2.18-17.59,3.28
		c-7.69,1.44-15.38,2.91-23.07,4.34c-2.96,0.55-5.94,0.97-8.89,1.52c-1.41,0.26-2.02-0.72-2.39-1.72c-0.14-0.39,0-0.77,0.37-1
		c0.52-0.32,1.03-0.66,1.59-0.9c1.31-0.56,2.64-1.09,3.97-1.6c1.07-0.41,2.16-0.75,3.24-1.13c-0.2-0.83-0.14-0.99,0.61-1.33
		c0.63-0.29,1.26-0.55,1.91-0.79c5.16-1.91,10.41-3.56,15.68-5.17c0.21-0.06,0.41-0.13,0.62-0.19c-1.37,0.1-2.7,0.32-4.03,0.56
		c-5.55,0.99-11.09,1.97-16.63,3c-4.99,0.92-9.97,1.89-14.95,2.85c-1.9,0.37-3.8,0.76-5.69,1.17c-0.49,0.11-0.89-0.02-1.15-0.38
		c-0.27-0.36-0.46-0.79-0.62-1.22c-0.13-0.33,0.02-0.6,0.35-0.74c0.19-0.08,0.39-0.13,0.58-0.18c2.56-0.69,5.12-1.39,7.68-2.06
		c6.84-1.77,13.7-3.42,20.62-4.84c6.04-1.24,12.09-2.45,18.16-3.58c4.81-0.9,9.64-1.71,14.47-2.51c4.73-0.78,9.46-1.52,14.2-2.23
		c3.75-0.56,7.52-1.06,11.28-1.58c1.61-0.22,3.25-0.36,4.84-0.68c5.65-1.14,11.27-2.38,16.92-3.51c5.45-1.09,10.91-2.12,16.37-3.12
		c4.66-0.85,9.34-1.64,14.01-2.41c4.02-0.66,8.05-1.28,12.08-1.89c4.08-0.62,8.17-1.21,12.25-1.78c3.61-0.5,7.22-0.96,10.83-1.43
		c1.36-0.18,2.72-0.35,4.07-0.53c-0.26-0.07-0.51-0.1-0.76-0.07c-1.49,0.15-2.99,0.3-4.48,0.47c-4.86,0.55-9.72,1.09-14.58,1.66
		c-5.13,0.6-10.27,1.21-15.4,1.87c-6.24,0.81-12.47,1.65-18.7,2.54c-6.31,0.9-12.61,1.83-18.9,2.81c-5.74,0.9-11.47,1.85-17.19,2.86
		c-7.68,1.35-15.36,2.72-23.02,4.19c-7.76,1.49-15.51,3.04-23.23,4.72c-11.65,2.54-23.28,5.21-34.91,7.84
		c-8.01,1.81-16.01,3.64-24,5.48c-0.59,0.14-1.03,0.1-1.41-0.37C0.07,41.512,0.07,41.402,0.07,41.302z M108.52,38.782
		c0.31-0.05,0.62-0.09,0.93-0.14c1.13-0.18,2.25-0.38,3.38-0.54c4.56-0.64,9.13-1.29,13.7-1.91c4.06-0.55,8.13-1.1,12.2-1.6
		c4.57-0.56,9.15-1.08,13.73-1.61c3.52-0.4,7.03-0.79,10.55-1.15c3.88-0.39,7.75-0.75,11.63-1.12c2.66-0.25,5.32-0.49,7.99-0.72
		c2.71-0.23,5.43-0.44,8.15-0.66c1.75-0.14,3.5-0.29,5.25-0.42c2.39-0.18,4.77-0.34,7.16-0.51c1.96-0.14,3.91-0.28,5.87-0.41
		c1.85-0.12,3.71-0.23,5.57-0.35c1.37-0.09,2.74-0.18,4.12-0.26c2.03-0.12,4.07-0.24,6.1-0.35c1.65-0.09,3.31-0.17,4.96-0.26
		c1.14-0.06,2.29-0.13,3.43-0.19c1.73-0.09,3.46-0.18,5.19-0.26c1.35-0.06,2.7-0.11,4.05-0.16c2.19-0.1,4.38-0.2,6.57-0.29
		c0.74-0.03,1.48-0.04,2.22-0.08c1.7-0.07,3.41-0.16,5.11-0.23c1.71-0.06,3.41-0.1,5.12-0.16c2.57-0.09,5.14-0.2,7.71-0.3
		c1.66-0.06,3.31-0.11,4.97-0.15c1.96-0.05,3.93-0.11,5.89-0.15c2.14-0.05,4.28-0.11,6.42-0.15c2.68-0.06,5.36-0.11,8.03-0.15
		c1.61-0.03,3.22-0.05,4.82-0.07c3.42-0.03,6.84-0.06,10.26-0.09c0.43,0,0.87,0,1.3-0.01c0.12,0,0.25-0.02,0.37-0.03
		c-0.85-0.15-1.71-0.23-2.56-0.3c-2.89-0.24-5.79-0.5-8.68-0.72c-2.34-0.18-4.68-0.33-7.02-0.48c-2.95-0.2-5.9-0.46-8.85-0.57
		c-2.6-0.1-5.21-0.05-7.81-0.01c-3.01,0.06-6.02,0.19-9.03,0.29c-1.4,0.05-2.8,0.1-4.21,0.16c-2.55,0.12-5.09,0.26-7.64,0.38
		c-2.65,0.13-5.3,0.23-7.95,0.38c-2.85,0.16-5.7,0.35-8.55,0.54c-3.1,0.2-6.21,0.39-9.31,0.61c-3.53,0.24-7.07,0.5-10.6,0.77
		c-3.73,0.29-7.47,0.59-11.2,0.91c-4.04,0.35-8.07,0.7-12.1,1.08c-4.62,0.44-9.23,0.9-13.84,1.37c-3.14,0.32-6.28,0.65-9.42,1
		c-3.39,0.38-6.78,0.79-10.17,1.19c-3.54,0.42-7.08,0.85-10.62,1.3c-3.29,0.42-6.57,0.85-9.85,1.3c-4.14,0.57-8.28,1.15-12.41,1.76
		c-3.78,0.56-7.56,1.16-11.33,1.75c-2.79,0.44-5.58,0.91-8.37,1.38c-0.11,0.02-0.21,0.16-0.32,0.23
		C109.13,38.612,108.78,38.372,108.52,38.782c-0.26-0.02-0.53-0.03-0.79-0.05c0,0.03,0,0.05,0,0.08
		C108,38.802,108.26,38.792,108.52,38.782z M97.95,33.732c0.31-0.04,0.62-0.09,0.94-0.13c0.09-0.03,0.18-0.08,0.28-0.09
		c4.66-0.71,9.32-1.45,13.98-2.12c6.86-0.97,13.73-1.92,20.6-2.81c6.14-0.8,12.28-1.53,18.43-2.23c5.06-0.57,10.13-1.05,15.2-1.56
		c2.58-0.26,5.17-0.51,7.76-0.74c2.69-0.24,5.38-0.45,8.07-0.66c1.88-0.15,3.76-0.28,5.64-0.42c1.88-0.13,3.76-0.26,5.64-0.39
		c1.85-0.13,3.71-0.25,5.56-0.37c1.4-0.09,2.8-0.15,4.2-0.23c2.11-0.12,4.22-0.26,6.33-0.37c1.78-0.09,3.56-0.15,5.35-0.23
		c0.67-0.03,1.34-0.09,2-0.13c-0.23-0.1-0.45-0.11-0.68-0.1c-1.2,0.03-2.39,0.06-3.59,0.09c-1.89,0.05-3.77,0.1-5.66,0.15
		c-0.87,0.02-1.73,0.04-2.6,0.07c-2.73,0.1-5.45,0.2-8.18,0.3c-1.4,0.05-2.8,0.1-4.2,0.16c-1.96,0.09-3.92,0.2-5.88,0.3
		c-1.83,0.09-3.67,0.12-5.5,0.26c-2.82,0.21-5.64,0.48-8.45,0.76c-4.54,0.44-9.08,0.9-13.61,1.38c-3.83,0.41-7.65,0.83-11.47,1.3
		c-4.3,0.52-8.6,1.04-12.89,1.65c-5.57,0.79-11.14,1.64-16.7,2.51c-4.45,0.7-8.9,1.48-13.34,2.23c-1.98,0.34-3.96,0.7-5.95,1.05
		c-0.14,0.03-0.41-0.06-0.33,0.26C98.56,33.562,98.21,33.312,97.95,33.732c-0.26-0.02-0.52-0.03-0.78-0.04c0,0.03,0,0.06,0,0.1
		C97.43,33.772,97.69,33.752,97.95,33.732z M381.73,22.592c-45.29-4.45-90.69-5.17-136.15-3.84c0.21,0.05,0.43,0.08,0.65,0.08
		c2.96,0.03,5.92,0.06,8.88,0.09c0.97,0.01,1.94,0.04,2.91,0.06c3.08,0.08,6.17,0.16,9.25,0.24c1.81,0.05,3.62,0.1,5.43,0.16
		c0.69,0.02,1.38,0.04,2.06,0.07c2.01,0.1,4.02,0.25,6.03,0.28c1.78,0.03,3.57-0.1,5.35-0.13c1.86-0.04,3.73-0.07,5.59-0.07
		c9.09,0.04,18.18-0.12,27.27,0.15c2.35,0.07,4.69,0.1,7.04,0.16c3.03,0.07,6.07,0.14,9.1,0.22c0.82,0.02,1.63,0.06,2.44,0.09
		c2.29,0.1,4.58,0.2,6.87,0.3c1.35,0.06,2.7,0.1,4.05,0.17c1.81,0.09,3.61,0.2,5.42,0.29c1.55,0.08,3.11,0.14,4.66,0.23
		c1.85,0.11,3.71,0.26,5.56,0.38c2.01,0.13,4.02,0.25,6.02,0.38c3.38,0.23,6.76,0.46,10.13,0.68
		C380.77,22.622,381.25,22.592,381.73,22.592z M318.32,22.452c-0.01,0.01-0.01,0.01-0.02,0.02c2.55,0.25,5.11,0.49,7.66,0.74
		c2.53,0.25,5.07,0.51,7.6,0.76c1.29,0.13,2.58,0.31,3.88,0.36c2.06,0.08,4.13,0.07,6.2,0.1c3.7,0.05,7.4,0.1,11.1,0.16
		c2.42,0.04,4.84,0.1,7.27,0.15c2.27,0.05,4.54,0.11,6.81,0.15c1.5,0.03,3.01,0.04,4.51,0.07c0.94,0.02,1.88,0.06,2.83,0.09
		c1.99,0.07,3.97,0.14,5.96,0.2c0.18,0.01,0.35-0.02,0.53-0.04c-0.74-0.13-1.47-0.21-2.2-0.26c-2.23-0.17-4.47-0.34-6.71-0.49
		c-2.06-0.15-4.12-0.3-6.17-0.42c-1.53-0.09-3.05-0.16-4.58-0.23c-2.14-0.1-4.28-0.2-6.42-0.3c-1.5-0.06-3.01-0.11-4.51-0.16
		c-1.96-0.07-3.92-0.16-5.88-0.23c-1.81-0.06-3.62-0.1-5.43-0.16c-2.96-0.1-5.91-0.21-8.87-0.29c-1.56-0.05-3.11-0.04-4.67-0.07
		c-1.48-0.03-2.96-0.11-4.44-0.14C321.27,22.432,319.79,22.452,318.32,22.452z M53.91,38.562c0.01,0.05,0.02,0.11,0.03,0.16
		c10.19-2.79,20.45-5.24,30.79-7.43c-0.11-0.05-0.21-0.07-0.3-0.06c-2.32,0.3-4.65,0.59-6.97,0.92c-1.46,0.21-2.95,0.34-4.36,0.72
		c-4.55,1.24-9.07,2.57-13.59,3.9C57.63,37.322,55.78,37.962,53.91,38.562z M55.6,41.312c-4.62,1.13-9.32,1.77-13.73,3.55
		c0.01,0.05,0.02,0.1,0.03,0.16c4.79-0.86,9.59-1.71,14.43-2.58C56.06,42.022,55.86,41.712,55.6,41.312z M280.32,15.642
		c7.03,0,14.07,0,20.04,0C294.4,15.432,287.36,15.342,280.32,15.642z M305.24,15.742c0-0.02,0-0.04,0-0.06c-0.89,0-1.79,0-2.68,0
		c0,0.02,0,0.04,0,0.06C303.45,15.742,304.35,15.742,305.24,15.742z M307.4,15.812c-0.01,0.01-0.02,0.03-0.03,0.04
		c0.37,0,0.74,0,1.11,0c0-0.01,0-0.03,0-0.04C308.12,15.812,307.76,15.812,307.4,15.812z M310.62,15.822c0,0.02,0,0.04,0,0.06
		c0.33,0,0.67,0,1,0c0-0.02,0-0.04,0-0.06C311.29,15.822,310.95,15.822,310.62,15.822z M330.88,16.502c0-0.02,0-0.05,0-0.07
		c-0.38,0-0.76,0-1.13,0c0,0.02,0,0.05,0,0.07C330.13,16.502,330.51,16.502,330.88,16.502z M189.22,25.642
		c-0.38-0.02-0.64-0.04-0.91-0.06c0,0.04,0,0.08,0,0.12C188.57,25.682,188.83,25.662,189.22,25.642z M325.96,16.272
		c-0.02,0.02-0.04,0.05-0.06,0.07c0.27,0,0.54,0,0.8,0c0-0.02,0-0.05,0-0.07C326.45,16.272,326.21,16.272,325.96,16.272z
		 M328.72,16.472c-0.01-0.03-0.01-0.05-0.02-0.08c-0.17,0.01-0.33,0.02-0.5,0.03c0,0.02,0,0.03,0,0.05
		C328.38,16.472,328.55,16.472,328.72,16.472z M314.42,16.012c-0.01-0.01-0.01-0.03-0.02-0.04c-0.12,0-0.23,0-0.35,0
		c0,0.01,0,0.03,0,0.04C314.18,16.012,314.3,16.012,314.42,16.012z M321.52,16.122c0,0.02,0,0.05,0,0.07c0.21,0,0.42,0,0.63,0
		c0-0.02,0-0.05,0-0.07C321.94,16.122,321.73,16.122,321.52,16.122z M317.12,16.042c0-0.02,0-0.04,0-0.06c-0.18,0-0.36,0-0.54,0
		c0,0.02,0,0.04,0,0.06C316.76,16.042,316.94,16.042,317.12,16.042z"/>
</g>
</svg>
