<svg width="22" height="22" viewBox="0 0 22 22" fill="none" xmlns="http://www.w3.org/2000/svg">
<path d="M21.3185 16.5727L21.9287 17.806C22.0962 18.1455 21.9587 18.558 21.6193 18.7256L18.8046 20.1393C18.117 20.4831 17.2748 20.1909 16.9482 19.4905L14.2538 13.7495H8.25064C7.56738 13.7495 6.98726 13.2468 6.88843 12.5678C5.43167 2.37505 5.51762 3.00672 5.50043 2.7489C5.50043 1.18474 6.80248 -0.0700153 8.38385 0.00303578C9.81483 0.0674926 10.9622 1.2449 11.0009 2.67585C11.0395 4.0896 10.0039 5.27131 8.65458 5.46897L8.85225 6.87413H14.4386C14.8168 6.87413 15.1262 7.18353 15.1262 7.56167V8.93675C15.1262 9.3149 14.8168 9.62429 14.4386 9.62429H9.24759L9.44526 10.9994H15.1262C15.659 10.9994 16.1446 11.3088 16.3724 11.79L18.8433 17.0497L20.3989 16.2633C20.7383 16.0915 21.1509 16.2333 21.3185 16.5727ZM13.3815 15.1246H12.3287C11.9935 17.4536 9.98671 19.2498 7.56309 19.2498C4.90741 19.2498 2.75021 17.0927 2.75021 14.4371C2.75021 12.6538 3.72568 11.0939 5.16954 10.2603C5.01055 9.14301 4.87733 8.20194 4.76131 7.41127C1.97672 8.52852 0 11.2572 0 14.4371C0 18.6053 3.39479 22 7.56309 22C10.6528 22 13.3128 20.1393 14.4859 17.4794L13.3815 15.1246Z" fill="black"/>
</svg>
