<svg width="154" height="47" viewBox="0 0 154 47" fill="none" xmlns="http://www.w3.org/2000/svg">
<path d="M0.566406 41.637C0.566406 39.563 2.26107 38.0592 4.1098 37.4889V35.1037C2.46649 34.637 1.18265 33.4963 1.18265 31.6296C1.18265 28.8296 3.18544 27.4815 5.39364 26.7555V24.4222C3.59627 23.1259 2.46649 21.6741 2.46649 19.0296C2.46649 13.5852 7.13966 9.69629 13.148 9.69629C17.359 9.69629 21.2105 11.3555 22.5457 15.1407H24.7539C25.1648 11.3555 26.3459 10.4741 28.8109 10.4741H30.146V16.0741H27.3216C25.7296 16.0741 25.3188 16.437 25.0107 19.0815L24.9593 19.5481C24.3431 25.1481 19.8753 28.5704 13.867 28.5704C11.9669 28.5704 10.0668 28.363 8.5262 27.6889C7.08831 28.1037 6.57477 28.6741 6.57477 29.5037C6.57477 30.6444 7.65319 30.6444 9.14245 30.6444H20.1835C25.6783 30.6444 29.119 34.2741 29.119 38.4741C29.119 43.7111 25.2161 46.5111 20.1835 46.5111H6.9856C2.10701 46.5111 0.566406 44.1259 0.566406 41.637ZM18.7456 41.1704C21.1592 41.1704 21.9295 40.1852 21.9295 38.7333C21.9295 37.5407 21.1592 36.4 18.7456 36.4H7.49913C6.88289 36.763 6.16394 37.6963 6.16394 38.7333C6.16394 40.3926 7.34507 41.1704 8.73162 41.1704H18.7456ZM18.3347 19.3407C18.3347 16.6444 16.5374 14.6741 13.8156 14.6741C11.0939 14.6741 9.29651 16.6444 9.29651 19.3407C9.29651 21.9852 11.0939 23.7481 13.8156 23.7481C16.5374 23.7481 18.3347 21.9852 18.3347 19.3407Z" fill="white"/>
<path d="M31.2759 23.3852C31.2759 15.2444 36.8221 9.69629 44.2683 9.69629C52.8957 9.69629 57.4148 16.5407 56.6959 25.2H38.5681C38.7735 29.763 41.1871 31.6296 44.3197 31.6296C47.6063 31.6296 49.1983 29.5555 50.2767 27.1185L56.7986 29.6592C55.3607 32.9778 52.1254 37.2296 44.3197 37.2296C36.4112 37.2296 31.2759 31.8889 31.2759 23.3852ZM49.5064 20.0148C49.1983 16.8 47.3495 14.9852 44.2683 14.9852C41.3412 14.9852 39.3384 16.7481 38.8248 20.0148H49.5064Z" fill="white"/>
<path d="M62.2419 10.4741H68.8152C68.7638 12.1852 67.6854 14.4148 66.2989 16.437H69.4828C70.6639 12.7555 73.2316 9.69629 77.3399 9.69629C82.9888 9.69629 86.07 13.4815 86.07 19.237V36.4H78.7778V20.637C78.7778 17.2148 77.1858 15.763 74.6695 15.763C69.5855 15.763 69.5341 21.363 69.5341 24.1111V36.4H62.2419V10.4741Z" fill="white"/>
<path d="M92.5918 0H100.346V6.94815H92.5918V0ZM92.8486 10.4741H100.141V36.4H92.8486V10.4741Z" fill="white"/>
<path d="M105.43 23.3852C105.43 15.2444 110.977 9.69629 118.423 9.69629C127.05 9.69629 131.569 16.5407 130.85 25.2H112.723C112.928 29.763 115.342 31.6296 118.474 31.6296C121.761 31.6296 123.353 29.5555 124.431 27.1185L130.953 29.6592C129.515 32.9778 126.28 37.2296 118.474 37.2296C110.566 37.2296 105.43 31.8889 105.43 23.3852ZM123.657 20.0148C123.349 16.8 121.5 14.9852 118.419 14.9852C115.491 14.9852 113.489 16.7481 112.975 20.0148H123.657Z" fill="white"/>
<path d="M138.656 29.6082V16.0748H133.264V10.4748H138.656V2.33411H145.948V10.4748H152.624V16.0748H145.948V28.26C145.948 29.8156 146.616 30.5415 148.208 30.5415H153.754V36.4008H145.178C141.018 36.4008 138.656 33.6526 138.656 29.6082Z" fill="white"/>
</svg>
