<svg width="172" height="65" viewBox="0 0 172 65" fill="none" xmlns="http://www.w3.org/2000/svg">
<g clip-path="url(#clip0)">
<path d="M80.6603 59.7961L77.6465 61.7264V60.4679L81.199 58.6099H81.9343V64.8599H80.6603V59.7961Z" fill="white"/>
<path d="M88.0218 59.6728H82.7251V58.6099H89.7874V59.1371L85.5038 64.8599H83.8537L88.0218 59.6728Z" fill="white"/>
<path d="M94.8791 62.1514V62.7296H92.6604V62.1514H94.8791Z" fill="white"/>
<path d="M97.2687 64.1156C97.3499 61.7304 102.625 61.7602 102.625 60.5102C102.625 59.8129 102.005 59.5451 100.407 59.5451C99.1582 59.5451 97.957 59.8554 97.4525 60.0978V58.9838C98.1151 58.682 99.3549 58.4736 100.646 58.4736C102.809 58.4736 103.95 58.9838 103.95 60.2679C103.95 62.7849 99.1582 62.5085 98.5939 63.784H103.818V64.8554H97.2644V64.1156H97.2687Z" fill="white"/>
<path d="M104.609 61.6241C104.609 59.6173 106.109 58.4736 108.55 58.4736C109.653 58.4736 110.419 58.6607 111.09 58.9923V60.1701C110.346 59.7576 109.547 59.5451 108.452 59.5451C106.845 59.5451 105.887 60.3019 105.887 61.6964C106.785 60.9481 107.952 60.7483 108.713 60.7483C110.696 60.7483 111.577 61.6582 111.577 62.8741C111.577 64.1326 110.384 64.9617 108.294 64.9617C106.092 64.966 104.609 63.9031 104.609 61.6241ZM110.295 62.8061C110.295 62.0918 109.692 61.7092 108.491 61.7092C107.657 61.7092 106.524 62.0663 106.024 62.6275C106.268 63.4141 107.067 63.8946 108.213 63.8946C109.482 63.8946 110.295 63.4991 110.295 62.8061Z" fill="white"/>
<path d="M114.933 61.8326H116.215C116.215 63.325 116.78 63.9287 118.011 63.9287C119.233 63.9287 119.806 63.3207 119.806 61.8326V59.6728H115.766V58.6099H121.08V61.8326C121.08 64.1541 119.849 65.0002 118.011 65.0002C116.164 65.0002 114.933 64.1541 114.933 61.8326Z" fill="white"/>
<path d="M122.44 61.5349V58.6055H123.714V61.8027C123.714 63.2313 124.351 63.9116 125.732 63.9116C127.104 63.9116 127.749 63.2313 127.749 61.8027V58.6055H129.023V61.5349C129.023 64.1965 127.784 65 125.727 65C123.68 65 122.44 64.1965 122.44 61.5349Z" fill="white"/>
<path d="M130.16 58.6099H131.434V63.7884H135.816V64.8599H130.16V58.6099Z" fill="white"/>
<path d="M136.364 58.6099H137.637V64.8599H136.364V58.6099Z" fill="white"/>
<path d="M141.327 64.1156C141.408 61.7304 146.688 61.7602 146.688 60.5102C146.688 59.8129 146.068 59.5451 144.469 59.5451C143.221 59.5451 142.019 59.8554 141.515 60.0978V58.9838C142.178 58.682 143.417 58.4736 144.708 58.4736C146.871 58.4736 148.013 58.9838 148.013 60.2679C148.013 62.7849 143.221 62.5085 142.652 63.784H147.876V64.8554H141.323V64.1156H141.327Z" fill="white"/>
<path d="M148.491 61.7348C148.491 59.7705 150.009 58.4695 152.459 58.4695C154.917 58.4695 156.434 59.7748 156.434 61.7348C156.434 63.6948 154.917 65.0001 152.459 65.0001C150.009 65.0001 148.491 63.6991 148.491 61.7348ZM155.16 61.7348C155.16 60.353 154.1 59.5282 152.459 59.5282C150.826 59.5282 149.765 60.3487 149.765 61.7348C149.765 63.1208 150.826 63.9329 152.459 63.9329C154.1 63.9287 155.16 63.1166 155.16 61.7348Z" fill="white"/>
<path d="M156.725 64.1156C156.806 61.7304 162.082 61.7602 162.082 60.5102C162.082 59.8129 161.462 59.5451 159.863 59.5451C158.615 59.5451 157.413 59.8554 156.909 60.0978V58.9838C157.572 58.682 158.811 58.4736 160.102 58.4736C162.266 58.4736 163.407 58.9838 163.407 60.2679C163.407 62.7849 158.615 62.5085 158.05 63.784H163.274V64.8554H156.721V64.1156H156.725Z" fill="white"/>
<path d="M163.89 61.7348C163.89 59.7705 165.408 58.4695 167.857 58.4695C170.315 58.4695 171.833 59.7748 171.833 61.7348C171.833 63.6948 170.315 65.0001 167.857 65.0001C165.408 65.0001 163.89 63.6991 163.89 61.7348ZM170.559 61.7348C170.559 60.353 169.499 59.5282 167.857 59.5282C166.224 59.5282 165.164 60.3487 165.164 61.7348C165.164 63.1208 166.224 63.9329 167.857 63.9329C169.499 63.9287 170.559 63.1166 170.559 61.7348Z" fill="white"/>
<path d="M20.4089 0C27.8902 0 32.9047 3.33758 33.1228 8.32908H28.7195C28.4716 5.39116 25.4278 3.64371 20.4688 3.64371C15.2661 3.64371 11.7863 6.55187 11.7863 11.2075C11.7863 15.8631 15.2319 18.7372 20.4047 18.7372C25.0815 18.7372 28.6554 16.841 29.1769 13.6565H17.177V10.4719H33.4605V21.9218H29.8909L30.1987 16.96H29.9208C27.95 20.9694 24.2265 22.4107 20.3149 22.4107C12.5558 22.4107 7.41724 17.9422 7.41724 11.2075C7.41724 4.47279 12.59 0 20.4089 0Z" fill="white"/>
<path d="M38.0134 0.489014H58.7899V4.13272H42.3867V8.8181H56.9773V12.1854H42.3867V18.2484H58.7942V21.9218H38.0177V0.489014H38.0134Z" fill="white"/>
<path d="M63.3127 0.489014H67.2842L83.4138 15.9184V0.489014H87.7871V21.9176H83.7857L67.6861 6.48816V21.9176H63.3127V0.489014Z" fill="white"/>
<path d="M100.189 4.13272H90.647V0.489014H114.134V4.13272H104.562V21.9218H100.193V4.13272H100.189Z" fill="white"/>
<path d="M115.241 15.0339H119.798C119.768 17.2703 122.509 18.7371 127.002 18.7371C132.08 18.7371 134.88 17.8188 134.88 15.7992C134.88 10.0127 115.827 16.7176 115.827 6.76861C115.827 2.38935 120.474 0.00415039 127.156 0.00415039C134.175 0.00415039 138.792 2.94208 138.822 7.38085H134.359C134.359 5.11469 131.649 3.64786 127.28 3.64786C122.816 3.64786 120.26 4.56623 120.26 6.40296C120.26 11.7899 139.284 5.54412 139.284 15.6164C139.284 20.0849 134.513 22.4149 127.185 22.4149C119.828 22.4106 115.177 19.4089 115.241 15.0339Z" fill="white"/>
<path d="M143.097 0.489014H163.873V4.13272H147.466V8.8181H162.056V12.1854H147.466V18.2484H163.873V21.9218H143.097V0.489014Z" fill="white"/>
<path d="M0 28.9753H19.7633V32.619H4.37332V37.4575H18.2542V40.8248H4.37332V50.4082H0V28.9753Z" fill="white"/>
<path d="M23.3328 28.9753H44.1092V32.619H27.7018V37.3044H42.2923V40.6718H27.7018V46.7347H44.1092V50.4082H23.3328V28.9753Z" fill="white"/>
<path d="M48.3245 28.9753H69.1009V32.619H52.6935V37.3044H67.2841V40.6718H52.6935V46.7347H69.1009V50.4082H48.3245V28.9753Z" fill="white"/>
<path d="M72.1191 43.5205H76.6762C76.6463 45.7569 79.3866 47.2237 83.8796 47.2237C88.9583 47.2237 91.7584 46.3053 91.7584 44.2858C91.7584 38.4992 72.7047 45.2041 72.7047 35.2552C72.7047 30.8759 77.3517 28.4907 84.0335 28.4907C91.053 28.4907 95.67 31.4286 95.6999 35.8674H91.2368C91.2368 33.6013 88.5265 32.1344 84.1574 32.1344C79.6944 32.1344 77.1379 33.0528 77.1379 34.8895C77.1379 40.2764 96.1616 34.0307 96.1616 44.103C96.1616 48.5715 91.3907 50.9014 84.0634 50.9014C76.7061 50.8972 72.0549 47.8955 72.1191 43.5205Z" fill="white"/>
<path d="M106.067 32.619H96.5249V28.9753H120.012V32.619H110.44V50.4082H106.071V32.619H106.067Z" fill="white"/>
<path d="M122.534 28.9753H143.311V32.619H126.903V37.3044H141.494V40.6718H126.903V46.7347H143.311V50.4082H122.534V28.9753Z" fill="white"/>
<path d="M147.53 28.9753H151.502L167.631 44.4048V28.9753H172.004V50.4039H168.003L151.903 34.9745V50.4039H147.53V28.9753Z" fill="white"/>
</g>
<defs>
<clipPath id="clip0">
<rect width="172" height="65" fill="white"/>
</clipPath>
</defs>
</svg>
