<svg width="107" height="26" xmlns="http://www.w3.org/2000/svg"><g fill="#000" fill-rule="evenodd"><path d="M1.432 25.936l1.52-7.288H0v-2.549h3.474l1.293-6.21H0v-2.55h5.29L6.81 0h2.62L7.91 7.34h5.5L14.93 0h2.636l-1.519 7.34h3.021v2.548h-3.544l-1.31 6.211h4.854v2.549h-5.38l-1.518 7.288H9.552l1.502-7.288H5.569L4.05 25.936H1.432zm4.662-9.837h5.483l1.31-6.21H7.386l-1.292 6.21zM21.346 13.245c0-7.533 5.686-12.753 12.552-12.753 6.365 0 9.977 3.644 11.264 7.358l-3.647 1.436c-1.216-3.223-3.47-5.536-7.689-5.536-4.398 0-8.654 3.224-8.654 9.46 0 6.097 3.505 9.6 8.511 9.6 4.828 0 7.51-3.223 7.724-6.166h-8.654v-3.223h12.338v12.088h-3.469c0-1.892.715-3.854 1.395-5.22h-1.681c-.68 1.821-2.825 5.71-8.69 5.71-6.616.002-11.3-4.905-11.3-12.753zM50.991.981h18.202v3.223H54.567v7.779h11.515v3.188H54.567v10.337h-3.576z" fill-rule="nonzero"/><path d="M86.798 22.223v3.415H73.793v-3.415h4.726V4.768c-.184.276-.488.581-.914.915-.425.333-.903.655-1.431.965-.53.31-1.076.57-1.639.777-.563.207-1.075.31-1.535.31V4.217c.62 0 1.253-.167 1.897-.5.644-.334 1.23-.702 1.76-1.105.528-.402.965-.776 1.31-1.12.345-.346.53-.541.552-.587h3.898v21.318h4.381zM89.006 9.46c0-1.196.23-2.311.69-3.346a8.405 8.405 0 011.88-2.69 8.78 8.78 0 012.81-1.795 9.207 9.207 0 013.485-.655c1.357 0 2.587.247 3.69.742a7.67 7.67 0 012.812 2.138c.77.932 1.368 2.064 1.794 3.398.425 1.334.638 2.852.638 4.553 0 2.346-.218 4.398-.655 6.158-.437 1.759-1.064 3.236-1.88 4.432-.817 1.196-1.8 2.093-2.95 2.69-1.15.599-2.426.898-3.829.898-1.586 0-3.03-.362-4.329-1.087-1.299-.724-2.351-1.742-3.156-3.053l2.242-2.345a5.96 5.96 0 002.208 2.294 5.878 5.878 0 003.07.845c1.725 0 3.104-.725 4.14-2.173 1.034-1.45 1.563-3.496 1.586-6.14-.483 1.034-1.236 1.85-2.26 2.449-1.023.598-2.19.897-3.5.897a8.713 8.713 0 01-3.347-.639 8.416 8.416 0 01-2.69-1.742 8.107 8.107 0 01-1.794-2.604 7.969 7.969 0 01-.655-3.225zm8.83-5.278a4.87 4.87 0 00-2 .414 5.246 5.246 0 00-1.639 1.138 5.55 5.55 0 00-1.121 1.673 4.99 4.99 0 00-.414 2.018c0 .713.138 1.38.414 2a5.333 5.333 0 002.777 2.76 4.99 4.99 0 002.018.414 4.99 4.99 0 002.018-.413 5.49 5.49 0 001.656-1.104 5.126 5.126 0 001.12-1.639 4.908 4.908 0 00.415-1.983c0-.713-.138-1.392-.414-2.035a5.34 5.34 0 00-1.139-1.69 5.396 5.396 0 00-1.673-1.139 4.99 4.99 0 00-2.018-.414z"/></g></svg>