<svg xmlns="http://www.w3.org/2000/svg" viewBox="0 0 210 180"><g fill="#000" fill-rule="nonzero"><path d="M195.282 75H61.718C53.593 75 47 81.72 47 90c0 8.28 6.595 15 14.718 15h133.564C203.407 105 210 98.28 210 90c0-8.28-6.593-15-14.718-15zM194.273 150H14.727C6.597 150 0 156.72 0 165c0 8.28 6.598 15 14.727 15h179.546c8.13 0 14.727-6.72 14.727-15 .001-8.28-6.597-15-14.727-15zM194.273 0H14.727C6.597 0 0 6.72 0 15c0 8.28 6.598 15 14.727 15h179.546C202.403 30 209 23.28 209 15c.001-8.28-6.597-15-14.727-15z"/></g></svg>