<?xml version="1.0" encoding="UTF-8"?>
<svg width="24px" height="20px" viewBox="0 0 24 20" version="1.1" xmlns="http://www.w3.org/2000/svg" xmlns:xlink="http://www.w3.org/1999/xlink">
    <!-- Generator: Sketch 51.3 (57544) - http://www.bohemiancoding.com/sketch -->
    <title>list (1)</title>
    <desc>Created with Sketch.</desc>
    <defs></defs>
    <g id="Page-1" stroke="none" stroke-width="1" fill="none" fill-rule="evenodd">
        <g id="list-(1)" fill="#000000" fill-rule="nonzero">
            <path d="M4,20 L0,20 L0,16 L4,16 L4,20 Z M4,8 L0,8 L0,12 L4,12 L4,8 Z M4,0 L0,0 L0,4 L4,4 L4,0 Z M7,0 L7,4 L24,4 L24,0 L7,0 Z M7,12 L24,12 L24,8 L7,8 L7,12 Z M7,20 L24,20 L24,16 L7,16 L7,20 Z" id="Shape"></path>
        </g>
    </g>
</svg>