<svg width="162" height="35" viewBox="0 0 162 35" fill="none" xmlns="http://www.w3.org/2000/svg">
<path d="M0.0610352 21.3863C0.0610352 13.782 5.289 8.79163 12.5606 8.79163C19.8322 8.79163 25.0602 13.782 25.0602 21.3863C25.0602 29.1332 19.8322 34.0284 12.5606 34.0284C5.289 34.0284 0.0610352 28.7054 0.0610352 21.3863ZM18.0262 21.4813C18.0262 16.586 15.7925 14.1146 12.5606 14.1146C9.32879 14.1146 7.09502 16.586 7.09502 21.4813C7.09502 26.3766 9.32879 28.6579 12.5606 28.6579C15.7925 28.6579 18.0262 26.3766 18.0262 21.4813Z" fill="black"/>
<path d="M30.0027 9.50453H36.0861C36.0386 11.0729 35.0405 13.1166 33.7573 14.9701H36.704C37.7971 11.5957 40.1735 8.79163 43.9756 8.79163C49.2036 8.79163 52.0552 12.2611 52.0552 17.5366V33.268H45.3064V18.8198C45.3064 15.683 43.833 14.3523 41.5042 14.3523C36.799 14.3523 36.7515 19.4852 36.7515 22.0041V33.268H30.0027V9.50453Z" fill="black"/>
<path d="M60.8006 27.0424V14.6379H55.8103V9.50494H60.8006V2.04321H67.5495V9.50494H73.728V14.6379H67.5495V25.8067C67.5495 27.2325 68.1673 27.8979 69.6406 27.8979H74.7736V33.2684H66.8366C62.9869 33.2684 60.8006 30.7495 60.8006 27.0424Z" fill="black"/>
<path d="M77.2922 21.3871C77.2922 13.8779 81.2845 8.79249 87.0828 8.79249C91.9781 8.79249 93.9267 11.9768 94.9723 14.4007H97.8239C96.6357 12.5471 95.3049 10.3134 95.3049 4.65764V0H102.054V33.2689H95.9228C95.9228 31.6054 97.0159 29.7994 97.9665 28.4211H95.1148C93.9267 30.7975 92.1206 34.0293 87.0828 34.0293C81.2845 34.0293 77.2922 28.8964 77.2922 21.3871ZM95.5861 21.3871C95.5861 16.3493 93.3049 13.8779 89.9304 13.8779C86.7937 13.8779 84.3698 15.8265 84.3698 21.3871C84.3698 26.9478 86.7937 28.8964 89.9304 28.8964C93.2573 28.8964 95.5861 26.425 95.5861 21.3871Z" fill="black"/>
<path d="M107.044 21.3387C107.044 13.877 112.177 8.79163 119.069 8.79163C127.053 8.79163 131.235 15.0652 130.57 23.0022H113.793C113.983 27.1846 116.217 28.8955 119.116 28.8955C122.158 28.8955 123.631 26.9944 124.629 24.7607L130.665 27.0895C129.334 30.1312 126.34 34.0284 119.116 34.0284C111.797 34.0284 107.044 29.1332 107.044 21.3387ZM123.916 18.2495C123.631 15.3028 121.92 13.6394 119.069 13.6394C116.359 13.6394 114.506 15.2553 114.031 18.2495H123.916Z" fill="black"/>
<path d="M145.917 23.4308L142.448 26.7577V33.2689H135.699V0H142.448V10.5035C142.448 15.2562 141.165 17.0147 139.026 18.7732L140.832 20.7218L152.001 9.50539H160.27L150.575 18.9157L161.839 33.2689H153.331L145.917 23.4308Z" fill="black"/>
</svg>
