<svg width="16" height="21" viewBox="0 0 16 21" fill="none" xmlns="http://www.w3.org/2000/svg">
<path d="M8.36719 0.266602C4.15898 0.266602 0 3.07207 0 7.6125C0 10.5 1.62422 12.1406 2.60859 12.1406C3.01465 12.1406 3.24844 11.0086 3.24844 10.6887C3.24844 10.3072 2.27637 9.49512 2.27637 7.90781C2.27637 4.61016 4.78652 2.27227 8.03496 2.27227C10.8281 2.27227 12.8953 3.85957 12.8953 6.77578C12.8953 8.95371 12.0217 13.0389 9.1916 13.0389C8.17031 13.0389 7.29668 12.3006 7.29668 11.2424C7.29668 9.69199 8.37949 8.19082 8.37949 6.59121C8.37949 3.87598 4.52813 4.36816 4.52813 7.64941C4.52813 8.33848 4.61426 9.10137 4.92188 9.72891C4.35586 12.1652 3.19922 15.7951 3.19922 18.3053C3.19922 19.0805 3.30996 19.8434 3.38379 20.6186C3.52324 20.7744 3.45352 20.758 3.6668 20.6801C5.73398 17.85 5.66016 17.2963 6.59531 13.5926C7.0998 14.5523 8.4041 15.0691 9.4377 15.0691C13.7936 15.0691 15.75 10.824 15.75 6.99727C15.75 2.92441 12.2309 0.266602 8.36719 0.266602Z" fill="black"/>
</svg>
